<?xml version="1.0" encoding="UTF-8" standalone="no"?><!DOCTYPE svg PUBLIC "-//W3C//DTD SVG 1.1//EN" "http://www.w3.org/Graphics/SVG/1.1/DTD/svg11.dtd"><svg width="100%" height="100%" viewBox="0 0 32 32" version="1.1" xmlns="http://www.w3.org/2000/svg" xmlns:xlink="http://www.w3.org/1999/xlink" xml:space="preserve" style="fill-rule:evenodd;clip-rule:evenodd;stroke-linejoin:round;stroke-miterlimit:1.41421;"><rect id="Arrow-Favicon-.--Blue" x="0" y="0" width="32" height="31.953" style="fill:none;"/><g id="Layer-1"><path d="M25.922,22.169c-0.284,-0.007 -0.647,-0.019 -0.898,-0.024c-0.652,-0.015 -1.085,-0.163 -1.434,-0.738c-0.524,-0.854 -7.065,-9.663 -7.666,-10.487c-0.077,0.048 -0.126,0.057 -0.145,0.086c-2.549,3.48 -5.117,6.959 -7.646,10.458c-0.339,0.479 -0.717,0.719 -1.299,0.681c-0.358,-0.02 -0.717,0 -1.124,0c1.764,2.885 5.892,5.78 10.98,5.377c3.905,-0.316 6.889,-2.042 9.127,-5.186m1.349,-2.655c1.56,-3.451 1.25,-9.605 -3.702,-13.592c-4.603,-3.71 -11.426,-3.537 -15.884,0.479c-4.477,4.036 -4.612,10.142 -3.091,13.19c0.107,-0.125 0.213,-0.23 0.3,-0.355c2.821,-3.853 5.641,-7.716 8.48,-11.56c0.174,-0.24 0.552,-0.441 0.853,-0.451c1.172,-0.047 2.364,-0.047 3.537,0c0.281,0.01 0.64,0.211 0.804,0.441c1.502,1.994 7.927,10.794 8.703,11.848m3.518,-7.879c1.734,6.729 -1.386,13.717 -7.627,17.072c-0.126,0.077 -0.262,0.154 -0.524,0.297c2.268,0.298 8.612,1.172 8.068,1.543c-0.544,0.371 -11.757,0.882 -14.703,0.882c-2.946,0 -13.963,-0.529 -14.307,-0.917c-0.422,-0.476 5.146,-1.248 7.492,-1.499c-0.485,-0.297 -0.873,-0.527 -1.26,-0.757c-4.1,-2.53 -6.611,-7.962 -7.051,-10.884c-0.34,-2.258 0.151,-5.747 0.538,-6.82c2.152,-5.876 6.377,-9.385 12.628,-10.228c0.688,-0.096 1.366,-0.134 2.044,-0.134c6.881,0 12.957,4.668 14.702,11.445" style="fill:#173a68;fill-rule:nonzero;"/><path d="M15.922,13.802c1.813,0 3.019,1.411 2.936,2.95c0.038,1.793 -1.442,2.964 -2.974,2.919c-1.692,-0.045 -2.914,-1.238 -2.929,-2.979c-0.015,-1.344 1.024,-2.89 2.967,-2.89" style="fill:#173a68;fill-rule:nonzero;"/></g></svg>