<?xml version="1.0" encoding="UTF-8" standalone="no"?>
<!DOCTYPE svg  PUBLIC '-//W3C//DTD SVG 1.1//EN'  'http://www.w3.org/Graphics/SVG/1.1/DTD/svg11.dtd'>
<svg stroke-linejoin="round" xmlns="http://www.w3.org/2000/svg" fill-rule="evenodd" xml:space="preserve" height="100%" width="100%" version="1.1" stroke-miterlimit="1.4142" clip-rule="evenodd" xmlns:xlink="http://www.w3.org/1999/xlink" viewBox="0 0 180 32"><rect id="Arrow-Logo-.--SVG" height="31.953" width="180" y="0" x="0" fill="none"/><g id="Layer-1" fill-rule="nonzero"><path fill="#2b6bc2" d="m173.58 15.182c2.537 0.017 2.652-1.434 2.655-2.203 0.009-2.153-1.962-2.358-2.675-2.367-1.378-0.009-2.391 0-3.779 0-1.406 0-2.812 0.009-4.219-0.009-0.493-0.009-0.666 0.171-0.656 0.659 0.026 1.12 0.017 2.24 0.008 3.36-0.008 0.397 0.128 0.578 0.566 0.578 1.198-0.008 2.395-0.007 3.592-0.006 1.504 0.001 3.399-0.02 4.508-0.012zm0.519-7.83c4.535 0.056 5.25 3.41 5.247 5.67-0.003 2.483-1.428 5.235-5.776 5.284-2.63 0.037-5.259 0.064-7.889 0.064-0.767 0-0.767 0-0.767 0.785v4.715c0 0.695-0.09 0.785-0.785 0.785h-1.588c-0.74 0-0.804-0.063-0.804-0.821v-8.607-7.044c0-0.831 0.064-0.886 0.913-0.886 3.817 0 7.633 0.001 11.449 0.055z"/><path fill="#2b6bc2" d="m159.49 8.255v1.409c0 0.749-0.192 0.939-0.976 0.939-1.717 0.009-3.434 0.009-5.151 0.009-0.164 0-0.328 0.009-0.493-0.009-0.539-0.045-0.721 0.153-0.721 0.713 0.018 4.155 0.01 8.309 0.01 12.454 0 0.858-0.028 0.885-0.896 0.885h-1.589c-0.674 0-0.829-0.153-0.829-0.831v-6.556c0-2.005-0.02-4.001 0.009-6.006 0.008-0.506-0.166-0.668-0.659-0.659-1.861 0.018-3.724 0.009-5.577 0.009-0.951 0-1.051-0.108-1.051-1.012v-1.463c0-0.623 0.211-0.84 0.85-0.84h16.097c0.767 0 0.976 0.208 0.976 0.958"/><path fill="#2b6bc2" d="m140.11 15.845c0.064 1.942-0.493 3.694-1.552 5.284-0.803 1.219-1.89 2.149-3.222 2.808-1.37 0.669-2.804 1.012-4.329 1.147-2.785 0.235-5.332-0.361-7.605-1.978-1.68-1.192-2.785-2.808-3.269-4.804-0.775-3.233-0.137-6.087 2.273-8.516 1.735-1.753 3.836-2.592 6.264-2.872 1.698-0.199 3.351-0.091 4.958 0.388 1.15 0.352 2.264 0.867 3.186 1.698 0.521 0.469 1.059 0.921 1.552 1.418 0.639 0.641 0.566 0.939-0.237 1.363-0.566 0.289-1.123 0.596-1.671 0.913-0.274 0.153-0.466 0.153-0.712-0.1-1.187-1.264-2.566-2.212-4.364-2.42-2.666-0.307-5.104 0.09-6.93 2.249-0.731 0.867-1.123 1.869-1.177 3.052-0.074 1.599 0.228 3.035 1.304 4.263 0.822 0.921 1.845 1.589 3.068 1.824 0.977 0.181 1.982 0.343 2.958 0.289 2.119-0.126 3.972-0.858 5.086-2.809 0.101-0.18 0.164-0.379 0.274-0.65-0.301-0.018-0.511-0.036-0.721-0.036-1.772-0.009-3.543 0-5.314-0.009-0.685 0-0.858-0.181-0.858-0.867 0-0.578 0.018-1.156-0.01-1.734-0.009-0.397 0.174-0.56 0.548-0.569h0.228c3.187 0 6.383 0.009 9.578-0.009 0.53 0 0.676 0.163 0.694 0.677"/><path d="m117.62 7.891c0.605 0.01 0.774 0.236 0.586 0.826-1.541 4.923-3.081 9.856-4.621 14.789-0.119 0.413-0.367 0.57-0.775 0.57-0.874-0.01-1.748-0.02-2.621 0-0.538 0.01-0.805-0.187-0.945-0.737-0.854-3.331-1.739-6.653-2.613-9.974-0.049-0.187-0.109-0.364-0.288-0.56-0.148 0.54-0.307 1.081-0.457 1.631-0.775 2.968-1.56 5.925-2.315 8.893-0.138 0.531-0.377 0.767-0.933 0.747-0.854-0.02-1.709-0.01-2.563 0-0.487 0-0.745-0.187-0.895-0.668-1.499-4.864-3.029-9.719-4.55-14.573-0.228-0.737-0.079-0.934 0.686-0.944 0.735-0.009 1.47 0.02 2.206-0.009 0.566-0.02 0.854 0.177 1.002 0.746 0.865 3.351 1.77 6.683 2.664 10.024 0.04 0.147 0.089 0.285 0.139 0.422 0.04 0 0.079 0.01 0.109 0.01 0.238-0.904 0.486-1.798 0.724-2.702 0.676-2.565 1.371-5.12 2.018-7.695 0.148-0.599 0.426-0.854 1.062-0.805 0.796 0.049 1.591 0.029 2.384 0 0.537-0.01 0.826 0.147 0.964 0.707 0.855 3.331 1.76 6.653 2.643 9.974 0.049 0.197 0.119 0.393 0.218 0.718 0.984-3.666 1.938-7.194 2.862-10.721 0.13-0.501 0.367-0.688 0.864-0.678 0.814 0.019 1.63 0 2.445 0.009"/><path d="m89.494 16.963c0.368-1.936-0.227-3.548-1.818-4.786-2.315-1.798-6.626-1.572-8.703 0.462-1.957 1.926-1.847 5.11 0.229 6.918 1.272 1.1 2.792 1.425 4.431 1.493 0.785-0.127 1.589-0.167 2.334-0.403 1.849-0.56 3.15-1.719 3.527-3.684m1.202-6.997c1.699 1.562 2.623 3.597 2.623 6.81-0.05 2.289-1.351 4.569-3.835 6.181-3.427 2.221-8.752 2.132-12.06-0.197-5.117-3.596-4.68-10.917 0.824-14.032 3.626-2.064 9.12-1.818 12.448 1.238"/><path d="m67.658 13.283c0.02-1.022-0.388-1.572-1.302-1.749-0.347-0.069-0.705-0.088-1.063-0.088h-6.368-1.033v3.41h0.636c2.325 0 4.639 0 6.964-0.01 0.278 0 0.557-0.02 0.825-0.069 0.934-0.157 1.331-0.609 1.341-1.494m3.755 9.758c0.427 0.698 0.259 1.002-0.576 1.012-0.755 0.01-1.51-0.019-2.265 0.02-0.517 0.02-0.845-0.187-1.113-0.609-0.983-1.523-1.987-3.027-2.97-4.55-0.239-0.373-0.487-0.531-0.954-0.521-1.858 0.039-3.725 0.02-5.653 0.02-0.02 0.236-0.039 0.442-0.039 0.648 0 1.376 0.009 2.752 0 4.128-0.01 0.717-0.159 0.864-0.885 0.864-0.635 0.01-1.271 0.01-1.907 0-0.715 0-0.864-0.147-0.864-0.874v-7.075-7.243c0-0.923 0.059-0.982 0.963-0.982h10.73c3.636 0 5.752 2.27 5.493 5.866-0.158 2.093-0.874 3.086-3.189 4.383 1.024 1.562 2.027 3.085 3.031 4.618 0.059 0.099 0.139 0.197 0.198 0.295"/><path d="m47.133 13.224c0.01-0.983-0.427-1.543-1.361-1.7-0.328-0.059-0.666-0.079-1.004-0.079h-5.891-1.52v3.4c2.722 0 5.395 0 8.077-0.01 0.109 0 0.229-0.029 0.348-0.049 0.934-0.167 1.351-0.658 1.351-1.562m3.706 9.758c0.139 0.235 0.278 0.609 0.188 0.796-0.089 0.176-0.487 0.255-0.765 0.265-0.735 0.039-1.47-0.02-2.205 0.029-0.547 0.03-0.874-0.206-1.153-0.648-1.003-1.553-2.026-3.105-3.059-4.638-0.12-0.177-0.378-0.354-0.577-0.364-1.887-0.029-3.775-0.01-5.662-0.01-0.08 0-0.149 0.02-0.298 0.049v4.825c0.01 0.541-0.239 0.796-0.795 0.776-0.656-0.019-1.312 0-1.967-0.009-0.735 0-0.874-0.138-0.874-0.855-0.01-2.123-0.01-4.245-0.01-6.368v-8.136c0.01-0.718 0.109-0.816 0.834-0.816h10.908c3.567 0 5.733 2.339 5.435 5.857-0.179 2.152-0.905 3.164-3.18 4.373 0.328 0.511 0.646 1.022 0.974 1.523 0.735 1.11 1.49 2.22 2.206 3.351"/><path d="m25.922 22.169c-0.284-0.007-0.647-0.019-0.898-0.024-0.652-0.015-1.085-0.163-1.434-0.738-0.524-0.854-7.065-9.663-7.666-10.487-0.077 0.048-0.126 0.057-0.145 0.086-2.549 3.48-5.117 6.959-7.646 10.458-0.339 0.479-0.717 0.719-1.299 0.681-0.358-0.02-0.717 0-1.124 0 1.764 2.885 5.892 5.78 10.98 5.377 3.905-0.316 6.889-2.042 9.127-5.186m1.349-2.655c1.56-3.451 1.25-9.605-3.702-13.592-4.603-3.71-11.426-3.537-15.884 0.479-4.477 4.036-4.612 10.142-3.091 13.19 0.107-0.125 0.213-0.23 0.3-0.355 2.821-3.853 5.641-7.716 8.48-11.56 0.174-0.24 0.552-0.441 0.853-0.451 1.172-0.047 2.364-0.047 3.537 0 0.281 0.01 0.64 0.211 0.804 0.441 1.502 1.994 7.927 10.794 8.703 11.848m3.518-7.879c1.734 6.729-1.386 13.717-7.627 17.072-0.126 0.077-0.262 0.154-0.524 0.297 2.268 0.298 8.612 1.172 8.068 1.543s-11.757 0.882-14.703 0.882-13.963-0.529-14.307-0.917c-0.422-0.476 5.146-1.248 7.492-1.499-0.485-0.297-0.873-0.527-1.26-0.757-4.1-2.53-6.611-7.962-7.051-10.884-0.34-2.258 0.151-5.747 0.538-6.82 2.152-5.876 6.377-9.385 12.628-10.228 0.688-0.096 1.366-0.134 2.044-0.134 6.881 0 12.957 4.668 14.702 11.445"/><path fill="#2b6bc2" d="m15.922 13.802c1.813 0 3.019 1.411 2.936 2.95 0.038 1.793-1.442 2.964-2.974 2.919-1.692-0.045-2.914-1.238-2.929-2.979-0.015-1.344 1.024-2.89 2.967-2.89"/></g></svg>
