<?xml version="1.0" encoding="UTF-8" standalone="no"?><!DOCTYPE svg PUBLIC "-//W3C//DTD SVG 1.1//EN" "http://www.w3.org/Graphics/SVG/1.1/DTD/svg11.dtd"><svg width="100%" height="100%" viewBox="0 0 64 48" version="1.1" xmlns="http://www.w3.org/2000/svg" xmlns:xlink="http://www.w3.org/1999/xlink" xml:space="preserve" style="fill-rule:evenodd;clip-rule:evenodd;stroke-linejoin:round;stroke-miterlimit:1.41421;"><rect id="CDC-Logo-.--Small" x="0" y="0" width="64" height="48" style="fill:none;"/><g><path d="M61.413,39.181l0.498,0l0,0.059l-0.204,0l0,0.545l-0.088,0l0,-0.545l-0.206,0l0,-0.059Z" style="fill:#006cb0;"/><path d="M62.498,39.785l0,-0.344c0,-0.029 0,-0.116 0,-0.173l-0.176,0.517l-0.059,0l-0.175,-0.517l0,0.517l-0.088,0l0,-0.604l0.117,0l0.176,0.518l0.176,-0.518l0.118,0l0,0.604l-0.089,0Z" style="fill:#006cb0;"/><rect x="2.311" y="2.233" width="59.378" height="35.033" style="fill:#006cb0;"/><path d="M26.719,37.325l34.97,-34.739l0,-0.353l-0.18,0l-35.328,35.092l0.538,0Z" style="fill:#fff;"/><path d="M4.639,37.325l2.387,-35.092l-0.359,0l-2.385,35.092l0.357,0Z" style="fill:#fff;"/><path d="M6.548,37.325l5.132,-35.092l-0.417,0l-5.072,35.092l0.357,0Z" style="fill:#fff;"/><path d="M8.578,37.325l7.996,-35.092l-0.417,0l-7.997,35.092l0.418,0Z" style="fill:#fff;"/><path d="M10.785,37.325l11.399,-35.092l-0.357,0l-11.4,35.092l0.358,0Z" style="fill:#fff;"/><path d="M12.873,37.325l14.681,-35.092l-0.418,0l-14.62,35.092l0.357,0Z" style="fill:#fff;"/><path d="M15.32,37.325l18.322,-35.092l-0.419,0l-18.32,35.092l0.417,0Z" style="fill:#fff;"/><path d="M42.773,2.233l-0.419,0l-23.751,35.092l0.479,0l23.691,-35.092Z" style="fill:#fff;"/><path d="M51.246,2.233l-0.478,0l-28.823,35.092l0.476,0l28.825,-35.092Z" style="fill:#fff;"/><path d="M61.689,15.51l0,-0.468l-28.584,22.283l0.597,0l27.987,-21.815Z" style="fill:#fff;"/><path d="M61.689,25.16l0,-0.409l-20.529,12.574l0.656,0l19.873,-12.165Z" style="fill:#fff;"/><path d="M61.689,34.226l0,-0.352l-7.579,3.451l0.895,0l6.684,-3.099Z" style="fill:#fff;"/><path d="M15.618,26.621c-6.146,0 -10.383,-3.742 -10.383,-9.766c0,-5.907 4.476,-10 10.443,-10c1.552,0 3.342,0.292 4.656,0.877l0,2.925c-0.657,-0.879 -1.97,-2.398 -4.595,-2.398c-3.701,0 -5.849,3.333 -5.849,8.186c0,5.088 1.969,8.656 6.207,8.656c1.491,0 3.402,-0.701 4.237,-1.52l0.715,1.52c-0.835,0.644 -2.327,1.52 -5.431,1.52Z" style="fill:#fff;"/><path d="M30.895,26.271c3.761,0 9.488,-2.281 9.488,-9.591c0,-7.779 -5.668,-9.533 -9.964,-9.533l-7.102,0l0,19.124l7.578,0Zm4.895,-9.532c0,7.485 -4.715,8.012 -8.296,8.012l0,-16.141c3.701,0 8.296,0.466 8.296,8.129Z" style="fill:#fff;"/><path d="M53.036,26.621c-6.207,0 -10.383,-3.742 -10.383,-9.766c0,-5.907 4.475,-10 10.383,-10c1.612,0 3.341,0.292 4.655,0.877l0,2.925c-0.658,-0.879 -1.971,-2.398 -4.597,-2.398c-3.698,0 -5.787,3.333 -5.787,8.186c0,5.088 1.969,8.656 6.207,8.656c1.491,0 3.342,-0.701 4.177,-1.52l0.716,1.52c-0.836,0.644 -2.327,1.52 -5.371,1.52Z" style="fill:#fff;"/><path d="M4.936,41.038l0.05,-0.031l0.339,0.512l-0.052,0.033c-0.018,-0.014 -0.032,-0.024 -0.041,-0.03c-0.009,-0.005 -0.018,-0.007 -0.027,-0.007c-0.018,0 -0.066,0.023 -0.147,0.071c-0.371,0.212 -0.729,0.319 -1.076,0.319c-0.404,0 -0.74,-0.118 -1.007,-0.354c-0.268,-0.236 -0.402,-0.531 -0.402,-0.885c0,-0.362 0.136,-0.659 0.408,-0.891c0.273,-0.232 0.627,-0.348 1.062,-0.348c0.223,0 0.448,0.036 0.675,0.108c0.227,0.072 0.347,0.107 0.361,0.107c0.018,-0.001 0.037,-0.003 0.057,-0.005c0.021,-0.003 0.043,-0.005 0.069,-0.008l0.05,0.031l-0.341,0.538l-0.057,-0.031c0.001,-0.003 0.002,-0.005 0.003,-0.009c0.002,-0.003 0.002,-0.007 0.002,-0.013c0,-0.066 -0.09,-0.135 -0.268,-0.206c-0.179,-0.071 -0.367,-0.106 -0.564,-0.106c-0.272,0 -0.495,0.076 -0.67,0.229c-0.175,0.153 -0.262,0.346 -0.262,0.577c0,0.247 0.087,0.447 0.261,0.599c0.174,0.152 0.403,0.228 0.684,0.228c0.207,0 0.41,-0.044 0.611,-0.132c0.2,-0.087 0.3,-0.159 0.3,-0.214c0,-0.01 -0.001,-0.022 -0.004,-0.036c-0.004,-0.015 -0.008,-0.029 -0.014,-0.046Z" style="fill:#006cb0;fill-rule:nonzero;"/><path d="M8.031,39.904c0.05,0 0.081,-0.007 0.096,-0.02c0.015,-0.014 0.027,-0.041 0.037,-0.084l0.061,0l0,0.609l-0.061,0c-0.009,-0.044 -0.022,-0.074 -0.039,-0.089c-0.017,-0.014 -0.049,-0.022 -0.094,-0.022l-1.224,0l0,0.392l0.751,0c0.049,0 0.08,-0.006 0.095,-0.021c0.015,-0.014 0.028,-0.043 0.039,-0.087l0.061,-0.002l0,0.558l-0.061,0c-0.01,-0.043 -0.023,-0.072 -0.04,-0.086c-0.017,-0.015 -0.049,-0.023 -0.094,-0.023l-0.751,0l0,0.441l1.274,0c0.048,0 0.08,-0.006 0.094,-0.02c0.015,-0.013 0.029,-0.043 0.041,-0.088l0.059,0l0,0.611l-0.059,0c-0.009,-0.044 -0.022,-0.074 -0.041,-0.089c-0.018,-0.016 -0.049,-0.024 -0.094,-0.024l-1.871,0l0,-0.059c0.046,-0.009 0.076,-0.023 0.092,-0.04c0.016,-0.018 0.024,-0.048 0.024,-0.091l0,-1.576c0,-0.043 -0.008,-0.073 -0.024,-0.091c-0.016,-0.017 -0.046,-0.031 -0.092,-0.04l0,-0.059l1.821,0Z" style="fill:#006cb0;fill-rule:nonzero;"/><path d="M11.184,41.153l0,-1.054c0,-0.045 -0.008,-0.076 -0.025,-0.095c-0.017,-0.018 -0.047,-0.032 -0.093,-0.041l0,-0.059l0.645,0l0,0.059c-0.044,0.009 -0.074,0.023 -0.088,0.04c-0.015,0.018 -0.023,0.05 -0.023,0.096l0,1.571c0,0.044 0.008,0.075 0.023,0.092c0.014,0.016 0.044,0.03 0.088,0.039l0,0.059l-0.726,0l0,-0.059c0.028,-0.006 0.051,-0.016 0.068,-0.028c0.017,-0.012 0.025,-0.026 0.025,-0.039c0,-0.009 -0.002,-0.018 -0.008,-0.028c-0.006,-0.01 -0.013,-0.018 -0.022,-0.027l-1.157,-1.122l0,1.113c0,0.043 0.007,0.073 0.023,0.091c0.016,0.017 0.047,0.031 0.092,0.04l0,0.059l-0.642,0l0,-0.059c0.044,-0.009 0.073,-0.023 0.088,-0.039c0.015,-0.017 0.023,-0.048 0.023,-0.092l0,-1.576c0,-0.044 -0.008,-0.075 -0.023,-0.092c-0.015,-0.016 -0.044,-0.03 -0.088,-0.039l0,-0.059l0.773,0l0,0.057c-0.028,0.009 -0.05,0.019 -0.063,0.029c-0.014,0.01 -0.02,0.023 -0.02,0.038c0,0.007 0.002,0.015 0.006,0.023c0.005,0.008 0.015,0.02 0.03,0.034l1.094,1.068Z" style="fill:#006cb0;fill-rule:nonzero;"/><path d="M12.851,40.294c-0.046,0 -0.076,0.006 -0.093,0.021c-0.017,0.014 -0.031,0.044 -0.043,0.089l-0.059,0l0,-0.609l0.061,0c0.009,0.044 0.023,0.073 0.04,0.088c0.017,0.014 0.048,0.021 0.094,0.021l1.648,0c0.049,0 0.081,-0.008 0.098,-0.023c0.017,-0.014 0.032,-0.043 0.042,-0.086l0.061,0l0,0.609l-0.061,0c-0.009,-0.043 -0.022,-0.072 -0.04,-0.087c-0.019,-0.016 -0.051,-0.023 -0.1,-0.023l-0.579,0l0,1.376c0,0.044 0.008,0.075 0.023,0.092c0.014,0.016 0.045,0.03 0.09,0.039l0,0.059l-0.71,0l0,-0.059c0.046,-0.009 0.075,-0.023 0.09,-0.039c0.014,-0.017 0.021,-0.048 0.021,-0.092l0,-1.376l-0.583,0Z" style="fill:#006cb0;fill-rule:nonzero;"/><path d="M17.465,39.904c0.049,0 0.081,-0.007 0.096,-0.02c0.015,-0.014 0.027,-0.041 0.037,-0.084l0.061,0l0,0.609l-0.061,0c-0.009,-0.044 -0.022,-0.074 -0.039,-0.089c-0.017,-0.014 -0.049,-0.022 -0.094,-0.022l-1.224,0l0,0.392l0.751,0c0.049,0 0.08,-0.006 0.095,-0.021c0.015,-0.014 0.028,-0.043 0.039,-0.087l0.061,-0.002l0,0.558l-0.061,0c-0.009,-0.043 -0.023,-0.072 -0.04,-0.086c-0.017,-0.015 -0.049,-0.023 -0.094,-0.023l-0.751,0l0,0.441l1.273,0c0.049,0 0.081,-0.006 0.095,-0.02c0.015,-0.013 0.029,-0.043 0.041,-0.088l0.059,0l0,0.611l-0.059,0c-0.009,-0.044 -0.022,-0.074 -0.041,-0.089c-0.018,-0.016 -0.049,-0.024 -0.095,-0.024l-1.87,0l0,-0.059c0.046,-0.009 0.076,-0.023 0.092,-0.04c0.016,-0.018 0.024,-0.048 0.024,-0.091l0,-1.576c0,-0.043 -0.008,-0.073 -0.024,-0.091c-0.016,-0.017 -0.046,-0.031 -0.092,-0.04l0,-0.059l1.821,0Z" style="fill:#006cb0;fill-rule:nonzero;"/><path d="M19.951,40.258l-0.556,0l0,0.446l0.574,0c0.176,0 0.306,-0.019 0.391,-0.056c0.085,-0.036 0.127,-0.094 0.127,-0.173c0,-0.075 -0.042,-0.13 -0.125,-0.165c-0.082,-0.034 -0.22,-0.052 -0.411,-0.052Zm-0.556,1.412c0,0.043 0.008,0.073 0.023,0.091c0.016,0.017 0.047,0.031 0.092,0.04l0,0.059l-0.708,0l0,-0.059c0.044,-0.009 0.074,-0.023 0.088,-0.039c0.015,-0.017 0.023,-0.048 0.023,-0.092l0,-1.576c0,-0.044 -0.008,-0.075 -0.023,-0.092c-0.014,-0.016 -0.044,-0.03 -0.088,-0.039l0,-0.059l1.33,0c0.266,0 0.471,0.049 0.617,0.149c0.146,0.1 0.22,0.24 0.22,0.418c0,0.149 -0.047,0.271 -0.141,0.368c-0.094,0.096 -0.231,0.164 -0.414,0.204l0.389,0.532c0.032,0.044 0.068,0.083 0.109,0.115c0.041,0.032 0.101,0.07 0.179,0.111l0,0.059l-0.839,0l0,-0.057c0.032,-0.006 0.058,-0.016 0.075,-0.029c0.017,-0.013 0.026,-0.03 0.026,-0.049c0,-0.004 -0.005,-0.019 -0.018,-0.044c-0.012,-0.026 -0.025,-0.048 -0.038,-0.067l-0.394,-0.551l-0.508,0l0,0.607Z" style="fill:#006cb0;fill-rule:nonzero;"/><path d="M21.969,41.714l0.217,-0.485l0.07,0.029c-0.001,0.003 -0.003,0.007 -0.004,0.013c-0.004,0.013 -0.005,0.022 -0.005,0.027c0,0.048 0.082,0.101 0.243,0.159c0.162,0.058 0.328,0.087 0.497,0.087c0.171,0 0.308,-0.024 0.409,-0.069c0.101,-0.046 0.151,-0.107 0.151,-0.182c0,-0.107 -0.17,-0.171 -0.511,-0.188c-0.135,-0.008 -0.243,-0.015 -0.321,-0.02c-0.235,-0.021 -0.41,-0.077 -0.527,-0.169c-0.116,-0.092 -0.174,-0.22 -0.174,-0.385c0,-0.2 0.087,-0.36 0.26,-0.481c0.173,-0.121 0.404,-0.182 0.69,-0.182c0.196,0 0.392,0.037 0.59,0.109c0.033,0.012 0.053,0.017 0.059,0.017c0.019,0 0.059,0.016 0.117,0.046c0.057,0.03 0.102,0.045 0.134,0.045c0.006,0 0.016,-0.003 0.029,-0.01c0.014,-0.006 0.026,-0.015 0.039,-0.025l0.052,0.022l-0.247,0.49l-0.067,-0.036c0.001,-0.001 0.002,-0.003 0.003,-0.006c0.001,-0.004 0.001,-0.008 0.001,-0.016c0,-0.057 -0.077,-0.118 -0.231,-0.184c-0.153,-0.065 -0.312,-0.097 -0.474,-0.097c-0.151,0 -0.273,0.02 -0.366,0.061c-0.092,0.041 -0.139,0.093 -0.139,0.156c0,0.098 0.134,0.155 0.401,0.168c0.203,0.01 0.367,0.027 0.492,0.049c0.219,0.039 0.383,0.106 0.491,0.204c0.109,0.097 0.163,0.223 0.163,0.377c0,0.196 -0.094,0.356 -0.283,0.481c-0.189,0.124 -0.433,0.186 -0.734,0.186c-0.285,0 -0.558,-0.059 -0.819,-0.175c-0.05,-0.023 -0.08,-0.034 -0.091,-0.034c-0.014,0.002 -0.026,0.005 -0.032,0.009c-0.007,0.005 -0.013,0.014 -0.017,0.027l-0.066,-0.018Z" style="fill:#006cb0;fill-rule:nonzero;"/><path d="M30.48,39.904c0.05,0 0.082,-0.007 0.097,-0.02c0.014,-0.014 0.027,-0.041 0.037,-0.084l0.061,0l0,0.609l-0.061,0c-0.009,-0.044 -0.023,-0.074 -0.04,-0.089c-0.017,-0.014 -0.048,-0.022 -0.094,-0.022l-1.227,0l0,0.392l0.755,0c0.048,0 0.08,-0.006 0.095,-0.021c0.014,-0.014 0.028,-0.043 0.038,-0.087l0.061,-0.002l0,0.558l-0.061,0c-0.009,-0.043 -0.022,-0.072 -0.039,-0.086c-0.017,-0.015 -0.049,-0.023 -0.094,-0.023l-0.755,0l0,0.641c0,0.043 0.008,0.073 0.023,0.091c0.016,0.017 0.047,0.031 0.092,0.04l0,0.059l-0.708,0l0,-0.059c0.045,-0.009 0.076,-0.023 0.092,-0.04c0.016,-0.018 0.023,-0.048 0.023,-0.091l0,-1.576c0,-0.043 -0.007,-0.073 -0.023,-0.091c-0.016,-0.017 -0.047,-0.031 -0.092,-0.04l0,-0.059l1.82,0Z" style="fill:#006cb0;fill-rule:nonzero;"/><path d="M32.021,40.881c0,0.187 0.064,0.339 0.189,0.455c0.126,0.117 0.291,0.174 0.496,0.174c0.204,0 0.369,-0.058 0.496,-0.176c0.126,-0.117 0.19,-0.268 0.19,-0.453c0,-0.187 -0.064,-0.34 -0.191,-0.457c-0.127,-0.116 -0.294,-0.175 -0.5,-0.175c-0.201,0 -0.365,0.059 -0.491,0.176c-0.125,0.118 -0.189,0.27 -0.189,0.456Zm0.68,-1.022c0.346,0 0.631,0.097 0.853,0.289c0.222,0.193 0.333,0.437 0.333,0.733c0,0.292 -0.112,0.535 -0.335,0.729c-0.222,0.194 -0.506,0.29 -0.851,0.29c-0.339,0 -0.62,-0.097 -0.841,-0.291c-0.223,-0.194 -0.334,-0.437 -0.334,-0.728c0,-0.293 0.111,-0.536 0.333,-0.73c0.221,-0.194 0.502,-0.292 0.842,-0.292Z" style="fill:#006cb0;fill-rule:nonzero;"/><path d="M35.969,40.258l-0.557,0l0,0.446l0.575,0c0.176,0 0.306,-0.019 0.391,-0.056c0.084,-0.036 0.126,-0.094 0.126,-0.173c0,-0.075 -0.042,-0.13 -0.124,-0.165c-0.082,-0.034 -0.22,-0.052 -0.411,-0.052Zm-0.557,1.412c0,0.043 0.008,0.073 0.024,0.091c0.016,0.017 0.046,0.031 0.091,0.04l0,0.059l-0.707,0l0,-0.059c0.044,-0.009 0.073,-0.023 0.088,-0.039c0.015,-0.017 0.023,-0.048 0.023,-0.092l0,-1.576c0,-0.044 -0.008,-0.075 -0.023,-0.092c-0.015,-0.016 -0.044,-0.03 -0.088,-0.039l0,-0.059l1.33,0c0.265,0 0.471,0.049 0.617,0.149c0.146,0.1 0.219,0.24 0.219,0.418c0,0.149 -0.046,0.271 -0.14,0.368c-0.094,0.096 -0.232,0.164 -0.414,0.204l0.389,0.532c0.032,0.044 0.068,0.083 0.109,0.115c0.04,0.032 0.1,0.07 0.178,0.111l0,0.059l-0.839,0l0,-0.057c0.033,-0.006 0.059,-0.016 0.076,-0.029c0.017,-0.013 0.026,-0.03 0.026,-0.049c0,-0.004 -0.006,-0.019 -0.018,-0.044c-0.013,-0.026 -0.025,-0.048 -0.039,-0.067l-0.393,-0.551l-0.509,0l0,0.607Z" style="fill:#006cb0;fill-rule:nonzero;"/><path d="M42.386,39.868l0,1.593l0.649,0c0.277,0 0.487,-0.067 0.631,-0.202c0.143,-0.135 0.215,-0.335 0.215,-0.598c0,-0.261 -0.072,-0.458 -0.214,-0.592c-0.143,-0.134 -0.353,-0.201 -0.632,-0.201l-0.649,0Zm0.552,-0.39c0.29,0 0.516,0.021 0.677,0.062c0.161,0.041 0.301,0.11 0.419,0.206c0.126,0.101 0.222,0.231 0.289,0.39c0.066,0.16 0.1,0.336 0.1,0.53c0,0.196 -0.034,0.374 -0.1,0.534c-0.067,0.16 -0.163,0.29 -0.289,0.392c-0.118,0.097 -0.258,0.165 -0.419,0.206c-0.161,0.041 -0.387,0.062 -0.677,0.062l-1.201,0l0,-0.059c0.049,-0.013 0.079,-0.027 0.094,-0.044c0.015,-0.016 0.021,-0.046 0.021,-0.087l0,-2.001c0,-0.045 -0.008,-0.076 -0.022,-0.092c-0.015,-0.017 -0.047,-0.031 -0.093,-0.041l0,-0.058l1.201,0Z" style="fill:#006cb0;fill-rule:nonzero;"/><path d="M45.971,41.67c0,0.043 0.008,0.073 0.024,0.091c0.016,0.017 0.046,0.031 0.091,0.04l0,0.059l-0.707,0l0,-0.059c0.044,-0.009 0.073,-0.023 0.088,-0.039c0.015,-0.017 0.022,-0.048 0.022,-0.092l0,-1.576c0,-0.044 -0.007,-0.075 -0.022,-0.092c-0.015,-0.016 -0.044,-0.03 -0.088,-0.039l0,-0.059l0.707,0l0,0.059c-0.045,0.009 -0.075,0.023 -0.091,0.04c-0.016,0.018 -0.024,0.048 -0.024,0.091l0,1.576Z" style="fill:#006cb0;fill-rule:nonzero;"/><path d="M47.082,41.714l0.217,-0.485l0.071,0.029c-0.001,0.003 -0.004,0.007 -0.005,0.013c-0.003,0.013 -0.004,0.022 -0.004,0.027c0,0.048 0.081,0.101 0.243,0.159c0.161,0.058 0.328,0.087 0.496,0.087c0.172,0 0.309,-0.024 0.409,-0.069c0.101,-0.046 0.152,-0.107 0.152,-0.182c0,-0.107 -0.171,-0.171 -0.511,-0.188c-0.136,-0.008 -0.243,-0.015 -0.321,-0.02c-0.235,-0.021 -0.411,-0.077 -0.527,-0.169c-0.117,-0.092 -0.174,-0.22 -0.174,-0.385c0,-0.2 0.087,-0.36 0.26,-0.481c0.173,-0.121 0.403,-0.182 0.689,-0.182c0.196,0 0.393,0.037 0.591,0.109c0.033,0.012 0.053,0.017 0.058,0.017c0.02,0 0.059,0.016 0.117,0.046c0.058,0.03 0.103,0.045 0.134,0.045c0.006,0 0.016,-0.003 0.03,-0.01c0.013,-0.006 0.026,-0.015 0.038,-0.025l0.052,0.022l-0.246,0.49l-0.068,-0.036c0.001,-0.001 0.002,-0.003 0.003,-0.006c0.001,-0.004 0.001,-0.008 0.001,-0.016c0,-0.057 -0.076,-0.118 -0.23,-0.184c-0.154,-0.065 -0.312,-0.097 -0.475,-0.097c-0.15,0 -0.272,0.02 -0.365,0.061c-0.093,0.041 -0.139,0.093 -0.139,0.156c0,0.098 0.133,0.155 0.4,0.168c0.203,0.01 0.367,0.027 0.493,0.049c0.218,0.039 0.382,0.106 0.491,0.204c0.108,0.097 0.162,0.223 0.162,0.377c0,0.196 -0.093,0.356 -0.282,0.481c-0.189,0.124 -0.433,0.186 -0.735,0.186c-0.285,0 -0.557,-0.059 -0.819,-0.175c-0.049,-0.023 -0.08,-0.034 -0.09,-0.034c-0.015,0.002 -0.026,0.005 -0.033,0.009c-0.007,0.005 -0.012,0.014 -0.017,0.027l-0.066,-0.018Z" style="fill:#006cb0;fill-rule:nonzero;"/><path d="M51.972,39.904c0.05,0 0.082,-0.007 0.097,-0.02c0.014,-0.014 0.027,-0.041 0.037,-0.084l0.061,0l0,0.609l-0.061,0c-0.009,-0.044 -0.023,-0.074 -0.04,-0.089c-0.017,-0.014 -0.048,-0.022 -0.094,-0.022l-1.223,0l0,0.392l0.751,0c0.048,0 0.08,-0.006 0.095,-0.021c0.015,-0.014 0.028,-0.043 0.038,-0.087l0.061,-0.002l0,0.558l-0.061,0c-0.009,-0.043 -0.022,-0.072 -0.039,-0.086c-0.017,-0.015 -0.049,-0.023 -0.094,-0.023l-0.751,0l0,0.441l1.273,0c0.049,0 0.08,-0.006 0.095,-0.02c0.015,-0.013 0.029,-0.043 0.041,-0.088l0.059,0l0,0.611l-0.059,0c-0.009,-0.044 -0.023,-0.074 -0.041,-0.089c-0.018,-0.016 -0.049,-0.024 -0.095,-0.024l-1.87,0l0,-0.059c0.045,-0.009 0.076,-0.023 0.092,-0.04c0.016,-0.018 0.024,-0.048 0.024,-0.091l0,-1.576c0,-0.043 -0.008,-0.073 -0.024,-0.091c-0.016,-0.017 -0.047,-0.031 -0.092,-0.04l0,-0.059l1.82,0Z" style="fill:#006cb0;fill-rule:nonzero;"/><path d="M54.186,40.462l-0.31,0.627l0.629,0l-0.319,-0.627Zm-0.251,-0.312c0.006,-0.013 0.011,-0.024 0.015,-0.036c0.003,-0.012 0.006,-0.023 0.006,-0.033c0,-0.028 -0.01,-0.052 -0.032,-0.071c-0.022,-0.019 -0.053,-0.035 -0.095,-0.049l0,-0.057l0.769,0l0,0.059c-0.044,0.015 -0.075,0.03 -0.093,0.046c-0.018,0.015 -0.027,0.035 -0.027,0.059c0,0.01 0.001,0.021 0.004,0.032c0.004,0.011 0.009,0.027 0.019,0.05l0.732,1.42c0.045,0.088 0.083,0.144 0.113,0.172c0.031,0.028 0.068,0.046 0.113,0.059l0,0.059l-0.778,0l0,-0.059c0.045,-0.014 0.075,-0.028 0.093,-0.045c0.018,-0.016 0.027,-0.036 0.027,-0.06c0,-0.01 -0.001,-0.021 -0.004,-0.033c-0.004,-0.012 -0.009,-0.028 -0.018,-0.049l-0.125,-0.243l-0.922,0l-0.116,0.243c-0.009,0.021 -0.014,0.037 -0.018,0.049c-0.003,0.012 -0.004,0.023 -0.004,0.033c0,0.026 0.009,0.046 0.026,0.061c0.017,0.016 0.047,0.03 0.089,0.044l0,0.059l-0.699,0l0,-0.059c0.082,-0.023 0.15,-0.09 0.204,-0.202c0.005,-0.013 0.01,-0.023 0.013,-0.029l0.708,-1.42Z" style="fill:#006cb0;fill-rule:nonzero;"/><path d="M56.164,41.714l0.217,-0.485l0.07,0.029c-0.001,0.003 -0.004,0.007 -0.005,0.013c-0.003,0.013 -0.004,0.022 -0.004,0.027c0,0.048 0.081,0.101 0.243,0.159c0.161,0.058 0.328,0.087 0.496,0.087c0.172,0 0.309,-0.024 0.409,-0.069c0.101,-0.046 0.152,-0.107 0.152,-0.182c0,-0.107 -0.171,-0.171 -0.511,-0.188c-0.136,-0.008 -0.243,-0.015 -0.321,-0.02c-0.235,-0.021 -0.411,-0.077 -0.527,-0.169c-0.117,-0.092 -0.174,-0.22 -0.174,-0.385c0,-0.2 0.087,-0.36 0.26,-0.481c0.173,-0.121 0.404,-0.182 0.69,-0.182c0.195,0 0.392,0.037 0.59,0.109c0.033,0.012 0.053,0.017 0.059,0.017c0.019,0 0.058,0.016 0.116,0.046c0.058,0.03 0.103,0.045 0.134,0.045c0.006,0 0.016,-0.003 0.03,-0.01c0.014,-0.006 0.026,-0.015 0.038,-0.025l0.052,0.022l-0.246,0.49l-0.068,-0.036c0.001,-0.001 0.002,-0.003 0.004,-0.006c0.001,-0.004 0.001,-0.008 0.001,-0.016c0,-0.057 -0.077,-0.118 -0.231,-0.184c-0.154,-0.065 -0.312,-0.097 -0.475,-0.097c-0.15,0 -0.272,0.02 -0.365,0.061c-0.093,0.041 -0.139,0.093 -0.139,0.156c0,0.098 0.133,0.155 0.4,0.168c0.204,0.01 0.368,0.027 0.493,0.049c0.218,0.039 0.382,0.106 0.491,0.204c0.108,0.097 0.163,0.223 0.163,0.377c0,0.196 -0.094,0.356 -0.283,0.481c-0.189,0.124 -0.433,0.186 -0.735,0.186c-0.285,0 -0.557,-0.059 -0.819,-0.175c-0.049,-0.023 -0.08,-0.034 -0.09,-0.034c-0.015,0.002 -0.026,0.005 -0.033,0.009c-0.007,0.005 -0.012,0.014 -0.017,0.027l-0.065,-0.018Z" style="fill:#006cb0;fill-rule:nonzero;"/><path d="M61.054,39.904c0.049,0 0.081,-0.007 0.096,-0.02c0.014,-0.014 0.027,-0.041 0.037,-0.084l0.061,0l0,0.609l-0.061,0c-0.009,-0.044 -0.023,-0.074 -0.04,-0.089c-0.016,-0.014 -0.048,-0.022 -0.093,-0.022l-1.224,0l0,0.392l0.751,0c0.049,0 0.08,-0.006 0.095,-0.021c0.015,-0.014 0.028,-0.043 0.038,-0.087l0.062,-0.002l0,0.558l-0.062,0c-0.009,-0.043 -0.022,-0.072 -0.039,-0.086c-0.017,-0.015 -0.049,-0.023 -0.094,-0.023l-0.751,0l0,0.441l1.273,0c0.049,0 0.081,-0.006 0.095,-0.02c0.015,-0.013 0.029,-0.043 0.041,-0.088l0.059,0l0,0.611l-0.059,0c-0.009,-0.044 -0.022,-0.074 -0.041,-0.089c-0.018,-0.016 -0.049,-0.024 -0.095,-0.024l-1.87,0l0,-0.059c0.045,-0.009 0.076,-0.023 0.092,-0.04c0.016,-0.018 0.024,-0.048 0.024,-0.091l0,-1.576c0,-0.043 -0.008,-0.073 -0.024,-0.091c-0.016,-0.017 -0.047,-0.031 -0.092,-0.04l0,-0.059l1.821,0Z" style="fill:#006cb0;fill-rule:nonzero;"/><path d="M4.936,45.009l0.05,-0.031l0.339,0.512l-0.052,0.034c-0.018,-0.015 -0.032,-0.025 -0.041,-0.03c-0.009,-0.006 -0.018,-0.008 -0.027,-0.008c-0.018,0 -0.066,0.023 -0.147,0.071c-0.371,0.213 -0.729,0.319 -1.076,0.319c-0.404,0 -0.74,-0.118 -1.007,-0.354c-0.268,-0.236 -0.402,-0.53 -0.402,-0.885c0,-0.362 0.136,-0.659 0.408,-0.891c0.273,-0.231 0.627,-0.348 1.062,-0.348c0.223,0 0.448,0.036 0.675,0.108c0.227,0.072 0.347,0.107 0.361,0.107c0.018,-0.001 0.037,-0.003 0.057,-0.005c0.021,-0.002 0.043,-0.005 0.069,-0.008l0.05,0.031l-0.341,0.539l-0.057,-0.031c0.001,-0.004 0.002,-0.006 0.003,-0.009c0.002,-0.004 0.002,-0.008 0.002,-0.014c0,-0.066 -0.09,-0.135 -0.268,-0.206c-0.179,-0.071 -0.367,-0.106 -0.564,-0.106c-0.272,0 -0.495,0.076 -0.67,0.229c-0.175,0.153 -0.262,0.346 -0.262,0.578c0,0.247 0.087,0.446 0.261,0.598c0.174,0.152 0.403,0.228 0.684,0.228c0.207,0 0.41,-0.044 0.611,-0.132c0.2,-0.087 0.3,-0.159 0.3,-0.213c0,-0.01 -0.001,-0.023 -0.004,-0.037c-0.004,-0.015 -0.008,-0.029 -0.014,-0.046Z" style="fill:#006cb0;fill-rule:nonzero;"/><path d="M6.247,44.852c0,0.187 0.063,0.339 0.188,0.455c0.126,0.117 0.291,0.174 0.496,0.174c0.204,0 0.369,-0.058 0.496,-0.176c0.127,-0.117 0.19,-0.268 0.19,-0.453c0,-0.187 -0.063,-0.34 -0.191,-0.456c-0.127,-0.117 -0.294,-0.175 -0.5,-0.175c-0.201,0 -0.365,0.058 -0.491,0.176c-0.125,0.117 -0.188,0.269 -0.188,0.455Zm0.679,-1.021c0.346,0 0.631,0.096 0.853,0.289c0.222,0.192 0.333,0.436 0.333,0.732c0,0.293 -0.112,0.535 -0.334,0.729c-0.223,0.194 -0.507,0.291 -0.852,0.291c-0.339,0 -0.619,-0.098 -0.841,-0.292c-0.223,-0.194 -0.334,-0.436 -0.334,-0.728c0,-0.292 0.111,-0.536 0.333,-0.73c0.221,-0.194 0.502,-0.291 0.842,-0.291Z" style="fill:#006cb0;fill-rule:nonzero;"/><path d="M10.56,45.125l0,-1.055c0,-0.044 -0.008,-0.075 -0.025,-0.094c-0.017,-0.019 -0.047,-0.032 -0.093,-0.041l0,-0.06l0.645,0l0,0.06c-0.044,0.009 -0.074,0.022 -0.088,0.04c-0.015,0.017 -0.023,0.049 -0.023,0.095l0,1.571c0,0.044 0.008,0.075 0.023,0.092c0.014,0.017 0.044,0.03 0.088,0.039l0,0.06l-0.726,0l0,-0.06c0.028,-0.006 0.051,-0.016 0.068,-0.028c0.017,-0.012 0.025,-0.025 0.025,-0.039c0,-0.008 -0.003,-0.017 -0.008,-0.027c-0.006,-0.01 -0.013,-0.019 -0.022,-0.028l-1.158,-1.121l0,1.112c0,0.043 0.008,0.073 0.024,0.091c0.016,0.018 0.047,0.031 0.092,0.04l0,0.06l-0.642,0l0,-0.06c0.044,-0.009 0.073,-0.022 0.088,-0.039c0.015,-0.017 0.022,-0.048 0.022,-0.092l0,-1.576c0,-0.044 -0.007,-0.075 -0.022,-0.091c-0.015,-0.017 -0.044,-0.03 -0.088,-0.039l0,-0.06l0.773,0l0,0.057c-0.028,0.009 -0.05,0.019 -0.063,0.029c-0.014,0.01 -0.021,0.024 -0.021,0.038c0,0.008 0.003,0.016 0.007,0.023c0.005,0.008 0.015,0.02 0.03,0.035l1.094,1.068Z" style="fill:#006cb0;fill-rule:nonzero;"/><path d="M11.925,44.265c-0.046,0 -0.076,0.007 -0.093,0.021c-0.017,0.014 -0.031,0.044 -0.043,0.09l-0.059,0l0,-0.61l0.061,0c0.009,0.045 0.023,0.073 0.04,0.088c0.017,0.014 0.048,0.021 0.094,0.021l1.648,0c0.049,0 0.081,-0.008 0.098,-0.022c0.017,-0.015 0.032,-0.044 0.042,-0.087l0.061,0l0,0.61l-0.061,0c-0.009,-0.043 -0.022,-0.072 -0.04,-0.088c-0.019,-0.015 -0.051,-0.023 -0.1,-0.023l-0.579,0l0,1.376c0,0.044 0.008,0.075 0.023,0.092c0.014,0.017 0.045,0.03 0.09,0.039l0,0.06l-0.71,0l0,-0.06c0.045,-0.009 0.075,-0.022 0.09,-0.039c0.014,-0.017 0.021,-0.048 0.021,-0.092l0,-1.376l-0.583,0Z" style="fill:#006cb0;fill-rule:nonzero;"/><path d="M15.566,44.229l-0.556,0l0,0.446l0.574,0c0.177,0 0.307,-0.019 0.392,-0.056c0.085,-0.036 0.126,-0.094 0.126,-0.172c0,-0.076 -0.041,-0.131 -0.124,-0.165c-0.083,-0.035 -0.221,-0.053 -0.412,-0.053Zm-0.556,1.412c0,0.043 0.008,0.073 0.024,0.091c0.016,0.018 0.046,0.031 0.091,0.04l0,0.06l-0.707,0l0,-0.06c0.044,-0.009 0.073,-0.022 0.088,-0.039c0.015,-0.017 0.022,-0.048 0.022,-0.092l0,-1.576c0,-0.044 -0.007,-0.075 -0.022,-0.091c-0.015,-0.017 -0.044,-0.03 -0.088,-0.039l0,-0.06l1.329,0c0.266,0 0.472,0.05 0.618,0.149c0.145,0.1 0.219,0.24 0.219,0.418c0,0.15 -0.046,0.272 -0.14,0.368c-0.094,0.097 -0.232,0.164 -0.414,0.204l0.389,0.532c0.031,0.044 0.068,0.083 0.108,0.115c0.041,0.032 0.101,0.07 0.179,0.111l0,0.06l-0.839,0l0,-0.058c0.033,-0.005 0.059,-0.016 0.076,-0.029c0.017,-0.013 0.026,-0.03 0.026,-0.048c0,-0.005 -0.006,-0.019 -0.018,-0.045c-0.013,-0.025 -0.025,-0.048 -0.039,-0.066l-0.393,-0.552l-0.509,0l0,0.607Z" style="fill:#006cb0;fill-rule:nonzero;"/><path d="M17.709,44.852c0,0.187 0.063,0.339 0.189,0.455c0.125,0.117 0.29,0.174 0.495,0.174c0.205,0 0.37,-0.058 0.496,-0.176c0.127,-0.117 0.19,-0.268 0.19,-0.453c0,-0.187 -0.063,-0.34 -0.191,-0.456c-0.126,-0.117 -0.294,-0.175 -0.5,-0.175c-0.201,0 -0.365,0.058 -0.49,0.176c-0.126,0.117 -0.189,0.269 -0.189,0.455Zm0.679,-1.021c0.346,0 0.631,0.096 0.853,0.289c0.223,0.192 0.333,0.436 0.333,0.732c0,0.293 -0.112,0.535 -0.334,0.729c-0.223,0.194 -0.507,0.291 -0.852,0.291c-0.339,0 -0.619,-0.098 -0.841,-0.292c-0.223,-0.194 -0.333,-0.436 -0.333,-0.728c0,-0.292 0.11,-0.536 0.332,-0.73c0.222,-0.194 0.502,-0.291 0.842,-0.291Z" style="fill:#006cb0;fill-rule:nonzero;"/><path d="M20.914,43.875l0,0.06c-0.045,0.009 -0.076,0.022 -0.091,0.04c-0.016,0.017 -0.024,0.047 -0.024,0.09l0,1.377l1.232,0c0.049,0 0.081,-0.007 0.095,-0.021c0.015,-0.015 0.028,-0.044 0.039,-0.088l0.061,0l0,0.612l-0.061,0c-0.009,-0.045 -0.023,-0.074 -0.041,-0.09c-0.018,-0.015 -0.049,-0.023 -0.093,-0.023l-1.825,0l0,-0.06c0.046,-0.009 0.076,-0.022 0.092,-0.04c0.016,-0.018 0.024,-0.048 0.024,-0.091l0,-1.576c0,-0.043 -0.008,-0.073 -0.024,-0.09c-0.016,-0.018 -0.046,-0.031 -0.092,-0.04l0,-0.06l0.708,0Z" style="fill:#006cb0;fill-rule:nonzero;"/><path d="M25.364,44.433l-0.309,0.627l0.628,0l-0.319,-0.627Zm-0.251,-0.312c0.006,-0.012 0.012,-0.023 0.015,-0.036c0.003,-0.012 0.006,-0.023 0.006,-0.033c0,-0.028 -0.01,-0.052 -0.032,-0.071c-0.021,-0.019 -0.053,-0.035 -0.095,-0.049l0,-0.057l0.769,0l0,0.06c-0.044,0.014 -0.075,0.03 -0.093,0.045c-0.018,0.016 -0.027,0.036 -0.027,0.059c0,0.01 0.001,0.021 0.005,0.032c0.003,0.011 0.009,0.028 0.018,0.05l0.732,1.42c0.046,0.088 0.083,0.144 0.113,0.172c0.031,0.028 0.068,0.047 0.113,0.059l0,0.06l-0.777,0l0,-0.06c0.044,-0.014 0.074,-0.028 0.092,-0.044c0.018,-0.017 0.027,-0.037 0.027,-0.06c0,-0.01 -0.001,-0.021 -0.004,-0.034c-0.003,-0.012 -0.009,-0.027 -0.018,-0.048l-0.125,-0.244l-0.922,0l-0.116,0.244c-0.009,0.021 -0.014,0.036 -0.018,0.048c-0.003,0.013 -0.004,0.024 -0.004,0.034c0,0.025 0.009,0.045 0.026,0.061c0.017,0.015 0.047,0.029 0.089,0.043l0,0.06l-0.698,0l0,-0.06c0.081,-0.022 0.149,-0.09 0.203,-0.202c0.006,-0.013 0.01,-0.023 0.014,-0.029l0.707,-1.42Z" style="fill:#006cb0;fill-rule:nonzero;"/><path d="M28.945,45.125l0,-1.055c0,-0.044 -0.008,-0.075 -0.025,-0.094c-0.017,-0.019 -0.047,-0.032 -0.093,-0.041l0,-0.06l0.645,0l0,0.06c-0.044,0.009 -0.074,0.022 -0.088,0.04c-0.015,0.017 -0.023,0.049 -0.023,0.095l0,1.571c0,0.044 0.008,0.075 0.023,0.092c0.014,0.017 0.044,0.03 0.088,0.039l0,0.06l-0.726,0l0,-0.06c0.028,-0.006 0.051,-0.016 0.068,-0.028c0.017,-0.012 0.025,-0.025 0.025,-0.039c0,-0.008 -0.002,-0.017 -0.008,-0.027c-0.006,-0.01 -0.013,-0.019 -0.022,-0.028l-1.157,-1.121l0,1.112c0,0.043 0.008,0.073 0.023,0.091c0.016,0.018 0.047,0.031 0.092,0.04l0,0.06l-0.642,0l0,-0.06c0.044,-0.009 0.073,-0.022 0.088,-0.039c0.015,-0.017 0.022,-0.048 0.022,-0.092l0,-1.576c0,-0.044 -0.007,-0.075 -0.022,-0.091c-0.015,-0.017 -0.044,-0.03 -0.088,-0.039l0,-0.06l0.773,0l0,0.057c-0.028,0.009 -0.05,0.019 -0.063,0.029c-0.014,0.01 -0.021,0.024 -0.021,0.038c0,0.008 0.003,0.016 0.007,0.023c0.005,0.008 0.015,0.02 0.03,0.035l1.094,1.068Z" style="fill:#006cb0;fill-rule:nonzero;"/><path d="M30.852,45.464l0.459,0c0.232,0 0.41,-0.052 0.531,-0.157c0.121,-0.104 0.182,-0.255 0.182,-0.455c0,-0.2 -0.06,-0.352 -0.18,-0.453c-0.12,-0.101 -0.297,-0.152 -0.533,-0.152l-0.459,0l0,1.217Zm0.43,-1.589c0.429,0 0.744,0.08 0.946,0.238c0.203,0.159 0.305,0.406 0.305,0.739c0,0.334 -0.102,0.581 -0.305,0.74c-0.202,0.16 -0.517,0.24 -0.946,0.24l-1.022,0l0,-0.06c0.044,-0.009 0.073,-0.022 0.088,-0.039c0.015,-0.017 0.023,-0.048 0.023,-0.092l0,-1.576c0,-0.044 -0.008,-0.075 -0.023,-0.091c-0.015,-0.017 -0.044,-0.03 -0.088,-0.039l0,-0.06l1.022,0Z" style="fill:#006cb0;fill-rule:nonzero;"/><path d="M36.062,43.848l-0.698,0l0,0.603l0.716,0c0.213,0 0.369,-0.024 0.468,-0.074c0.1,-0.05 0.15,-0.128 0.15,-0.234c0,-0.105 -0.049,-0.181 -0.145,-0.226c-0.096,-0.045 -0.26,-0.069 -0.491,-0.069Zm-1.347,1.984l0,-0.06c0.046,-0.009 0.078,-0.022 0.092,-0.04c0.015,-0.018 0.023,-0.048 0.023,-0.091l0,-2.001c0,-0.041 -0.007,-0.071 -0.021,-0.089c-0.015,-0.017 -0.046,-0.032 -0.094,-0.044l0,-0.058l1.497,0c0.316,0 0.561,0.061 0.737,0.182c0.175,0.121 0.262,0.29 0.262,0.508c0,0.221 -0.084,0.396 -0.251,0.525c-0.167,0.128 -0.396,0.193 -0.685,0.193l-0.911,0l0,0.784c0,0.044 0.006,0.074 0.021,0.091c0.015,0.017 0.045,0.03 0.094,0.04l0,0.06l-0.764,0Z" style="fill:#006cb0;fill-rule:nonzero;"/><path d="M38.939,44.229l-0.557,0l0,0.446l0.575,0c0.176,0 0.306,-0.019 0.391,-0.056c0.085,-0.036 0.127,-0.094 0.127,-0.172c0,-0.076 -0.042,-0.131 -0.125,-0.165c-0.082,-0.035 -0.22,-0.053 -0.411,-0.053Zm-0.557,1.412c0,0.043 0.008,0.073 0.024,0.091c0.016,0.018 0.046,0.031 0.092,0.04l0,0.06l-0.708,0l0,-0.06c0.044,-0.009 0.073,-0.022 0.088,-0.039c0.015,-0.017 0.023,-0.048 0.023,-0.092l0,-1.576c0,-0.044 -0.008,-0.075 -0.023,-0.091c-0.015,-0.017 -0.044,-0.03 -0.088,-0.039l0,-0.06l1.33,0c0.265,0 0.471,0.05 0.617,0.149c0.146,0.1 0.219,0.24 0.219,0.418c0,0.15 -0.046,0.272 -0.14,0.368c-0.094,0.097 -0.232,0.164 -0.414,0.204l0.389,0.532c0.032,0.044 0.068,0.083 0.109,0.115c0.04,0.032 0.1,0.07 0.178,0.111l0,0.06l-0.839,0l0,-0.058c0.033,-0.005 0.059,-0.016 0.076,-0.029c0.017,-0.013 0.026,-0.03 0.026,-0.048c0,-0.005 -0.006,-0.019 -0.018,-0.045c-0.012,-0.025 -0.025,-0.048 -0.038,-0.066l-0.394,-0.552l-0.509,0l0,0.607Z" style="fill:#006cb0;fill-rule:nonzero;"/><path d="M42.565,43.875c0.049,0 0.081,-0.007 0.096,-0.02c0.014,-0.013 0.027,-0.041 0.037,-0.084l0.061,0l0,0.609l-0.061,0c-0.009,-0.044 -0.023,-0.074 -0.04,-0.089c-0.016,-0.014 -0.048,-0.022 -0.093,-0.022l-1.224,0l0,0.393l0.751,0c0.049,0 0.08,-0.007 0.095,-0.021c0.015,-0.015 0.028,-0.044 0.038,-0.088l0.061,-0.002l0,0.558l-0.061,0c-0.009,-0.043 -0.022,-0.072 -0.039,-0.086c-0.017,-0.015 -0.049,-0.022 -0.094,-0.022l-0.751,0l0,0.441l1.273,0c0.049,0 0.081,-0.007 0.095,-0.02c0.015,-0.014 0.029,-0.044 0.041,-0.089l0.059,0l0,0.612l-0.059,0c-0.009,-0.045 -0.023,-0.074 -0.041,-0.09c-0.018,-0.015 -0.049,-0.023 -0.095,-0.023l-1.87,0l0,-0.06c0.045,-0.009 0.076,-0.022 0.092,-0.04c0.016,-0.018 0.024,-0.048 0.024,-0.091l0,-1.576c0,-0.043 -0.008,-0.073 -0.024,-0.09c-0.016,-0.018 -0.047,-0.031 -0.092,-0.04l0,-0.06l1.821,0Z" style="fill:#006cb0;fill-rule:nonzero;"/><path d="M43.527,44.165l-0.003,-0.004c-0.062,-0.13 -0.133,-0.205 -0.214,-0.226l0,-0.06l0.814,0l0,0.06c-0.046,0.014 -0.076,0.03 -0.092,0.044c-0.016,0.014 -0.024,0.034 -0.024,0.06c0,0.014 0.001,0.029 0.005,0.043c0.003,0.015 0.008,0.027 0.013,0.039l0.525,1.07l0.504,-1.07c0.006,-0.012 0.01,-0.024 0.014,-0.039c0.003,-0.014 0.004,-0.029 0.004,-0.043c0,-0.026 -0.008,-0.046 -0.023,-0.06c-0.016,-0.014 -0.047,-0.03 -0.092,-0.044l0,-0.06l0.769,0l0,0.06c-0.089,0.025 -0.16,0.094 -0.21,0.206c-0.006,0.012 -0.011,0.02 -0.012,0.024l-0.667,1.421c-0.005,0.016 -0.01,0.03 -0.011,0.041c-0.001,0.011 -0.002,0.023 -0.002,0.036c0,0.026 0.009,0.046 0.026,0.062c0.017,0.017 0.048,0.032 0.093,0.047l0,0.06l-0.825,0l0,-0.06c0.044,-0.014 0.074,-0.028 0.091,-0.043c0.017,-0.016 0.024,-0.036 0.024,-0.061c0,-0.01 -0.001,-0.021 -0.004,-0.034c-0.003,-0.012 -0.009,-0.027 -0.018,-0.048l-0.685,-1.421Z" style="fill:#006cb0;fill-rule:nonzero;"/><path d="M48.044,43.875c0.049,0 0.081,-0.007 0.096,-0.02c0.014,-0.013 0.027,-0.041 0.037,-0.084l0.061,0l0,0.609l-0.061,0c-0.009,-0.044 -0.023,-0.074 -0.04,-0.089c-0.017,-0.014 -0.048,-0.022 -0.093,-0.022l-1.224,0l0,0.393l0.751,0c0.049,0 0.08,-0.007 0.095,-0.021c0.015,-0.015 0.028,-0.044 0.038,-0.088l0.061,-0.002l0,0.558l-0.061,0c-0.009,-0.043 -0.022,-0.072 -0.039,-0.086c-0.017,-0.015 -0.049,-0.022 -0.094,-0.022l-0.751,0l0,0.441l1.273,0c0.049,0 0.08,-0.007 0.095,-0.02c0.015,-0.014 0.029,-0.044 0.041,-0.089l0.059,0l0,0.612l-0.059,0c-0.009,-0.045 -0.023,-0.074 -0.041,-0.09c-0.018,-0.015 -0.049,-0.023 -0.095,-0.023l-1.87,0l0,-0.06c0.045,-0.009 0.076,-0.022 0.092,-0.04c0.016,-0.018 0.024,-0.048 0.024,-0.091l0,-1.576c0,-0.043 -0.008,-0.073 -0.024,-0.09c-0.016,-0.018 -0.047,-0.031 -0.092,-0.04l0,-0.06l1.821,0Z" style="fill:#006cb0;fill-rule:nonzero;"/><path d="M50.896,45.125l0,-1.055c0,-0.044 -0.008,-0.075 -0.025,-0.094c-0.017,-0.019 -0.047,-0.032 -0.093,-0.041l0,-0.06l0.645,0l0,0.06c-0.044,0.009 -0.073,0.022 -0.088,0.04c-0.015,0.017 -0.023,0.049 -0.023,0.095l0,1.571c0,0.044 0.008,0.075 0.023,0.092c0.015,0.017 0.044,0.03 0.088,0.039l0,0.06l-0.726,0l0,-0.06c0.028,-0.006 0.051,-0.016 0.068,-0.028c0.017,-0.012 0.025,-0.025 0.025,-0.039c0,-0.008 -0.003,-0.017 -0.008,-0.027c-0.006,-0.01 -0.013,-0.019 -0.022,-0.028l-1.157,-1.121l0,1.112c0,0.043 0.008,0.073 0.023,0.091c0.016,0.018 0.047,0.031 0.092,0.04l0,0.06l-0.642,0l0,-0.06c0.044,-0.009 0.073,-0.022 0.088,-0.039c0.015,-0.017 0.023,-0.048 0.023,-0.092l0,-1.576c0,-0.044 -0.008,-0.075 -0.023,-0.091c-0.015,-0.017 -0.044,-0.03 -0.088,-0.039l0,-0.06l0.773,0l0,0.057c-0.028,0.009 -0.05,0.019 -0.063,0.029c-0.014,0.01 -0.021,0.024 -0.021,0.038c0,0.008 0.003,0.016 0.007,0.023c0.005,0.008 0.015,0.02 0.03,0.035l1.094,1.068Z" style="fill:#006cb0;fill-rule:nonzero;"/><path d="M52.261,44.265c-0.046,0 -0.076,0.007 -0.093,0.021c-0.017,0.014 -0.03,0.044 -0.043,0.09l-0.059,0l0,-0.61l0.061,0c0.009,0.045 0.023,0.073 0.04,0.088c0.017,0.014 0.048,0.021 0.094,0.021l1.648,0c0.049,0 0.082,-0.008 0.099,-0.022c0.016,-0.015 0.031,-0.044 0.041,-0.087l0.061,0l0,0.61l-0.061,0c-0.009,-0.043 -0.022,-0.072 -0.04,-0.088c-0.018,-0.015 -0.051,-0.023 -0.1,-0.023l-0.579,0l0,1.376c0,0.044 0.008,0.075 0.023,0.092c0.015,0.017 0.045,0.03 0.09,0.039l0,0.06l-0.71,0l0,-0.06c0.046,-0.009 0.075,-0.022 0.09,-0.039c0.014,-0.017 0.021,-0.048 0.021,-0.092l0,-1.376l-0.583,0Z" style="fill:#006cb0;fill-rule:nonzero;"/><path d="M55.346,45.641c0,0.043 0.008,0.073 0.024,0.091c0.016,0.018 0.046,0.031 0.092,0.04l0,0.06l-0.708,0l0,-0.06c0.044,-0.009 0.073,-0.022 0.088,-0.039c0.015,-0.017 0.023,-0.048 0.023,-0.092l0,-1.576c0,-0.044 -0.008,-0.075 -0.023,-0.091c-0.015,-0.017 -0.044,-0.03 -0.088,-0.039l0,-0.06l0.708,0l0,0.06c-0.046,0.009 -0.076,0.022 -0.092,0.04c-0.016,0.017 -0.024,0.047 -0.024,0.09l0,1.576Z" style="fill:#006cb0;fill-rule:nonzero;"/><path d="M56.582,44.852c0,0.187 0.063,0.339 0.189,0.455c0.125,0.117 0.29,0.174 0.495,0.174c0.205,0 0.37,-0.058 0.496,-0.176c0.127,-0.117 0.19,-0.268 0.19,-0.453c0,-0.187 -0.063,-0.34 -0.191,-0.456c-0.126,-0.117 -0.294,-0.175 -0.5,-0.175c-0.201,0 -0.365,0.058 -0.49,0.176c-0.126,0.117 -0.189,0.269 -0.189,0.455Zm0.679,-1.021c0.346,0 0.631,0.096 0.853,0.289c0.223,0.192 0.334,0.436 0.334,0.732c0,0.293 -0.112,0.535 -0.335,0.729c-0.223,0.194 -0.507,0.291 -0.852,0.291c-0.339,0 -0.619,-0.098 -0.841,-0.292c-0.222,-0.194 -0.333,-0.436 -0.333,-0.728c0,-0.292 0.111,-0.536 0.332,-0.73c0.222,-0.194 0.502,-0.291 0.842,-0.291Z" style="fill:#006cb0;fill-rule:nonzero;"/><path d="M60.895,45.125l0,-1.055c0,-0.044 -0.008,-0.075 -0.025,-0.094c-0.016,-0.019 -0.047,-0.032 -0.092,-0.041l0,-0.06l0.644,0l0,0.06c-0.044,0.009 -0.073,0.022 -0.088,0.04c-0.015,0.017 -0.023,0.049 -0.023,0.095l0,1.571c0,0.044 0.008,0.075 0.023,0.092c0.015,0.017 0.044,0.03 0.088,0.039l0,0.06l-0.726,0l0,-0.06c0.029,-0.006 0.051,-0.016 0.068,-0.028c0.017,-0.012 0.025,-0.025 0.025,-0.039c0,-0.008 -0.002,-0.017 -0.008,-0.027c-0.005,-0.01 -0.012,-0.019 -0.021,-0.028l-1.158,-1.121l0,1.112c0,0.043 0.008,0.073 0.024,0.091c0.016,0.018 0.046,0.031 0.091,0.04l0,0.06l-0.642,0l0,-0.06c0.044,-0.009 0.073,-0.022 0.088,-0.039c0.015,-0.017 0.023,-0.048 0.023,-0.092l0,-1.576c0,-0.044 -0.008,-0.075 -0.023,-0.091c-0.015,-0.017 -0.044,-0.03 -0.088,-0.039l0,-0.06l0.773,0l0,0.057c-0.028,0.009 -0.049,0.019 -0.063,0.029c-0.013,0.01 -0.02,0.024 -0.02,0.038c0,0.008 0.002,0.016 0.007,0.023c0.004,0.008 0.014,0.02 0.029,0.035l1.094,1.068Z" style="fill:#006cb0;fill-rule:nonzero;"/></g></svg>