<?xml version="1.0" encoding="UTF-8" standalone="no"?>
<!DOCTYPE svg PUBLIC "-//W3C//DTD SVG 1.1//EN" "http://www.w3.org/Graphics/SVG/1.1/DTD/svg11.dtd">
<svg width="100%" height="100%" viewBox="0 0 227 202" version="1.1" xmlns="http://www.w3.org/2000/svg" xmlns:xlink="http://www.w3.org/1999/xlink" xml:space="preserve" style="fill-rule:evenodd;clip-rule:evenodd;stroke-linejoin:round;stroke-miterlimit:1.41421;">
    <g transform="matrix(1,0,0,1,-109.511,-0)">
        <g id="KP" transform="matrix(35.6119,0,0,12.8525,2008.59,-131.684)">
            <g transform="matrix(0.093515,0,0,0.259113,-58.998,-5.74039)">
                <path d="M99.522,73.111C99.104,72.762 98.616,72.413 98.128,72.274L97.291,88.658L101.335,77.364C101.753,75.62 100.777,74.156 99.522,73.111ZM95.199,71.089C98.128,71.158 99.243,69.067 99.313,67.045C99.452,63.977 97.5,62.722 95.199,62.722C92.898,62.722 91.086,64.046 91.155,67.045C91.225,68.718 91.922,71.019 95.199,71.089ZM86.554,70.112C86.763,65.092 79.024,65.302 79.303,70.112C79.024,75.132 87.042,75.202 86.554,70.112ZM110.329,72.692C110.468,67.742 103.078,67.672 103.217,72.692C103.148,77.294 110.538,77.503 110.329,72.692ZM110.329,72.692M113.188,97.095L113.188,93.818C110.468,95.003 108.098,95.979 105.518,97.095L113.188,97.095ZM76.374,97.095L84.741,97.095L76.374,93.539L76.374,97.095ZM113.188,93.051L113.188,89.635C110.538,91.378 107.749,93.121 105.309,94.864L113.188,93.051ZM76.374,92.842C79.233,93.47 82.37,94.236 84.95,94.794L76.374,89.146L76.374,92.842ZM113.188,88.798L113.188,84.336L104.263,93.051C107.331,91.657 110.12,90.262 113.188,88.798ZM76.444,88.519L85.857,92.842C82.719,89.705 79.582,86.706 76.444,83.638L76.444,88.519ZM112.63,80.501C112.421,80.083 112.142,79.664 111.793,79.316L102.869,91.447C106.425,88.798 109.841,86.148 113.188,83.429C113.257,82.383 113.118,81.338 112.63,80.501ZM76.374,82.872C80,85.66 83.625,88.519 87.251,91.308L77.49,77.503C76.584,79.037 76.304,80.85 76.374,82.872ZM106.913,77.015L101.056,90.123L111.375,78.897C110.19,77.643 108.656,77.085 106.913,77.015ZM101.056,80.501L99.243,89.356C101.614,85.242 103.984,81.198 106.285,77.015C104.054,77.224 101.823,78.061 101.056,80.501ZM77.839,77.015L88.924,89.913L82.091,74.714C80.279,74.784 78.745,75.69 77.839,77.015ZM82.649,74.644C85.368,79.385 88.157,84.545 90.807,89.077C89.9,85.103 88.924,78.479 87.53,76.597C85.926,74.365 82.649,74.644 82.649,74.644ZM90.877,73.111C89.552,74.156 88.645,75.62 88.994,77.294L93.038,88.589L92.271,72.274C91.783,72.413 91.225,72.762 90.877,73.111ZM92.829,72.134L95.199,88.449L97.57,72.134C96.176,71.646 94.363,71.577 92.829,72.134Z" style="fill:rgb(3,107,176);"/>
            </g>
            <g transform="matrix(0.0530587,0,0,0.147016,-52.1114,4.41276)">
                <path d="M31.274,123.044L33.514,123.044L33.514,110.092L31.274,110.092L31.274,123.044ZM43.447,119.344C43.447,117.493 42.279,116.325 40.039,115.448C38.286,114.864 37.41,114.377 37.41,113.306C37.41,112.527 38.189,111.65 39.844,111.65C40.916,111.65 42.084,112.04 42.571,112.332L42.571,110.481C42.084,110.189 40.916,109.897 39.844,109.897C37.02,109.897 35.17,111.455 35.17,113.501C35.17,115.448 36.63,116.519 38.773,117.298C40.429,117.883 41.208,118.467 41.208,119.538C41.208,120.61 40.234,121.388 38.676,121.388C37.507,121.388 35.949,120.999 35.17,120.415L35.17,122.46C35.851,122.849 37.215,123.239 38.578,123.239C41.89,123.239 43.447,121.388 43.447,119.344ZM56.205,117.591L57.374,117.591C58.348,119.149 60.587,123.044 60.587,123.044L63.217,123.044L59.711,117.396C60.49,117.201 61.074,116.909 61.464,116.519C62.146,115.935 62.73,114.961 62.73,113.792C62.73,112.527 62.243,111.65 61.464,111.066C60.685,110.384 59.613,110.092 57.763,110.092L53.965,110.092L53.965,121.194L47.051,121.194L47.051,117.493L51.044,117.493L51.044,115.643L47.051,115.643L47.051,111.942C47.635,111.942 52.018,111.942 52.018,111.942L52.018,110.092C50.654,110.092 44.908,110.092 44.908,110.092L44.908,123.044L56.205,123.044L56.205,117.591ZM56.205,115.545L56.205,111.942L58.153,111.942C59.808,111.942 60.49,112.624 60.49,113.792C60.49,115.058 59.808,115.643 58.153,115.643L56.205,115.643L56.205,115.545ZM26.989,119.344L28.255,123.044L30.593,123.044L26.113,110.092L23.289,110.092L19.491,121.096L15.79,116.422L20.757,110.092L18.127,110.092L13.55,116.227L13.55,110.092L11.31,110.092L11.31,123.044L13.55,123.044L13.55,116.714L18.322,123.044L20.951,123.044L22.217,119.344L26.989,119.344ZM24.555,112.137L26.405,117.493L22.802,117.493L24.555,112.137Z" style="fill:rgb(3,107,176);"/>
            </g>
            <g transform="matrix(0.0530587,0,0,0.147016,-56.9863,7.1937)">
                <path d="M107.454,119.44L105.215,109.994L101.222,109.994L101.222,123.044C102.39,123.044 103.462,123.044 103.462,123.044L103.462,111.941L106.286,123.044C106.286,123.044 107.26,123.044 108.623,123.044L111.447,111.941L111.447,123.044L113.59,123.044L113.59,109.994L109.792,109.994L107.454,119.44ZM180.66,119.592C180.66,117.961 181.915,116.707 183.546,116.707C185.176,116.707 186.431,117.961 186.431,119.592C186.431,121.223 185.176,122.477 183.546,122.477C181.915,122.477 180.66,121.223 180.66,119.592ZM183.546,123.104C185.428,123.104 187.058,121.599 187.058,119.592C187.058,117.585 185.428,116.079 183.546,116.079C181.664,116.079 180.033,117.585 180.033,119.592C180.033,121.599 181.664,123.104 183.546,123.104ZM182.793,119.843L183.546,119.843L184.549,121.599L185.302,121.599L184.048,119.843C184.675,119.717 185.176,119.467 185.176,118.714C185.176,117.961 184.675,117.585 183.671,117.585L182.166,117.585L182.166,121.599L182.793,121.599L182.793,119.843ZM182.793,119.341L182.793,118.087L183.671,118.087C184.048,118.087 184.549,118.212 184.549,118.714C184.549,119.341 184.048,119.341 183.546,119.341L182.793,119.341ZM78.726,110.968C77.947,110.286 76.875,109.994 75.025,109.994L71.227,109.994L71.227,123.044L73.467,123.044L73.467,117.687L75.025,117.687C76.875,117.687 77.947,117.395 78.726,116.713C79.407,116.032 79.991,115.058 79.991,113.792C79.991,112.623 79.505,111.649 78.726,110.968ZM75.317,115.739L73.467,115.739L73.467,111.941L75.317,111.941C77.07,111.941 77.752,112.72 77.752,113.792C77.752,114.96 76.973,115.739 75.317,115.739ZM98.008,116.519C98.69,115.837 99.274,114.96 99.274,113.694C99.274,112.526 98.69,111.552 98.008,110.968C97.229,110.286 96.158,109.994 94.21,109.994L90.509,109.994L90.509,121.096L83.595,121.096L83.595,117.493L87.588,117.493L87.588,115.545L83.595,115.545L83.595,111.941C84.082,111.941 88.464,111.941 88.464,111.941L88.464,109.994C87.198,109.994 81.355,109.994 81.355,109.994L81.355,123.044L92.749,123.044L92.749,117.493L93.82,117.493C94.891,119.148 97.132,123.044 97.132,123.044L99.761,123.044L96.255,117.298C97.034,117.2 97.521,116.908 98.008,116.519ZM92.749,115.642L92.749,111.941L94.599,111.941C96.352,111.941 97.034,112.623 97.034,113.694C97.034,114.96 96.352,115.642 94.599,115.642L92.749,115.642ZM157.803,109.994L157.413,109.994L157.413,120.122L152.252,109.994L149.233,109.994L149.233,121.096L142.416,121.096L142.416,117.493L146.409,117.493L146.409,115.545L142.416,115.545L142.416,111.941C142.903,111.941 147.285,111.941 147.285,111.941L147.285,109.994C146.019,109.994 140.176,109.994 140.176,109.994L140.176,123.044L151.375,123.044L151.375,113.11L156.537,123.044L159.556,123.044L159.556,111.941C160.919,111.941 162.38,111.941 163.549,111.941L163.549,123.044L165.788,123.044L165.788,111.941L169.684,111.941L169.587,109.994L157.803,109.994ZM178.351,121.096L172.995,121.096L172.995,117.493L176.891,117.493L176.891,115.545L172.995,115.545L172.995,111.941C173.482,111.941 177.864,111.941 177.864,111.941L177.864,109.994C176.501,109.994 170.755,109.994 170.755,109.994L170.755,123.044L178.351,123.044L178.351,121.096ZM135.696,120.024L130.535,109.994L127.516,109.994L127.516,123.044C128.587,123.044 129.658,123.044 129.658,123.044L129.658,113.207L134.82,123.044L137.839,123.044L137.839,109.994L135.696,109.994L135.696,120.024ZM119.238,109.994L114.758,123.044L116.998,123.044L118.167,119.245L122.939,119.245L124.205,123.044L126.542,123.044L122.062,109.994L119.238,109.994ZM118.751,117.493L120.504,112.039L122.354,117.493L118.751,117.493Z" style="fill:rgb(3,107,176);"/>
            </g>
        </g>
    </g>
</svg>
