<?xml version="1.0" encoding="UTF-8" standalone="no"?><!DOCTYPE svg PUBLIC "-//W3C//DTD SVG 1.1//EN" "http://www.w3.org/Graphics/SVG/1.1/DTD/svg11.dtd"><svg width="100%" height="100%" viewBox="0 0 1177 1001" version="1.1" xmlns="http://www.w3.org/2000/svg" xmlns:xlink="http://www.w3.org/1999/xlink" xml:space="preserve" style="fill-rule:evenodd;clip-rule:evenodd;stroke-linejoin:round;stroke-miterlimit:1.41421;"><rect id="Massage-Envy" x="0" y="0" width="1176.55" height="1000.64" style="fill:none;"/><g><path d="M719.896,374.021c4.179,95.374 8.371,190.747 12.528,286.123c0.69,15.775 1.439,31.552 1.781,47.338c0.276,12.709 -5.153,18.383 -17.873,18.429c-44.077,0.161 -88.153,0.163 -132.225,0.004c-13.234,-0.046 -18.069,-5.83 -18.596,-20.331c-3.558,-97.981 -7.162,-195.961 -10.798,-293.94c-0.135,-3.652 -0.119,-7.483 -1.226,-10.893c-3.798,-11.715 -16.471,-13.917 -26.602,-4.232c-13.006,12.431 -25.471,25.425 -38.162,38.185c-27.713,27.865 -55.293,55.864 -83.171,83.563c-25.2,25.044 -42.873,25.09 -67.749,0.263c-39.518,-39.433 -78.854,-79.048 -118.257,-118.594c-5.786,-5.808 -11.592,-12.163 -20.9,-8.533c-9.579,3.734 -10.068,12.304 -10.384,21.109c-3.469,97.629 -7.053,195.25 -10.694,292.872c-0.602,16.134 -5.422,20.569 -21.781,20.586c-41.873,0.045 -83.742,0.045 -125.612,0.003c-16.849,-0.018 -22.461,-6.011 -21.727,-22.679c6.476,-146.377 12.956,-292.752 19.384,-439.129c3.092,-70.432 6.065,-140.867 9.138,-211.296c0.24,-5.5 0.84,-10.984 1.265,-16.474c0.915,-11.788 6.773,-20.303 17.902,-24.072c10.783,-3.65 19.994,-0.055 27.891,8.109c30.396,31.405 60.952,62.651 91.457,93.952c57.678,59.175 115.314,118.394 173.072,177.489c18.656,19.092 27.719,18.821 46.595,-0.54c87.181,-89.402 174.439,-178.73 261.452,-268.3c8.94,-9.202 18.406,-15.217 31.131,-10.436c13.033,4.897 16.809,15.717 17.382,29.046c4.772,110.798 9.896,221.583 14.915,332.372c-0.044,0.002 -0.092,0.004 -0.136,0.006Z" style="fill:#777576;"/><path d="M816.034,268.214c-0.002,-75.669 -0.027,-151.337 0.011,-227.005c0.015,-26.501 9.253,-35.637 35.859,-35.639c91.831,-0.011 183.661,-0.016 275.494,0.002c25.795,0.007 35.247,9.416 35.306,35.116c0.046,19.836 0.15,39.673 -0.051,59.508c-0.213,21.202 -10.044,31.026 -31.208,31.072c-52.159,0.11 -104.32,0.011 -156.479,0.059c-19.505,0.018 -22.542,3.071 -22.584,22.198c-0.026,13.223 -0.097,26.448 0.033,39.671c0.133,13.974 4.477,18.446 18.539,18.492c40.773,0.128 81.547,0.04 122.319,0.058c21.213,0.011 25.48,4.362 25.498,25.989c0.022,22.039 0.068,44.078 -0.024,66.117c-0.069,16.496 -5.965,22.485 -22.685,22.538c-41.138,0.13 -82.279,0.02 -123.419,0.066c-16.946,0.02 -20.19,3.205 -20.256,19.745c-0.062,15.058 -0.073,30.119 0.011,45.18c0.086,15.689 3.923,19.683 19.484,19.696c51.793,0.051 103.584,-0.074 155.377,-0.057c26.642,0.009 35.405,8.929 35.452,35.857c0.028,16.897 0.079,33.796 -0.025,50.691c-0.138,23.13 -9.528,32.804 -32.888,32.915c-48.852,0.233 -97.705,0.101 -146.56,0.099c-44.078,0 -88.157,0.112 -132.235,-0.097c-26.355,-0.121 -34.938,-8.942 -34.954,-35.266c-0.044,-75.669 -0.015,-151.337 -0.015,-227.005Z" style="fill:#777576;"/><path d="M153.82,864.97c0.991,21.631 1.958,43.262 2.989,64.891c0.321,6.731 0.022,7.143 -6.696,7.152c-7.331,0.011 -14.671,-0.21 -21.99,0.082c-4.499,0.179 -6.144,-1.291 -6.256,-5.931c-0.462,-19.148 -1.276,-38.289 -1.96,-57.433c-0.019,-0.499 -0.022,-0.999 -0.051,-1.498c-0.118,-1.99 0.017,-4.233 -2.224,-5.142c-2.257,-0.916 -3.713,0.758 -5.138,2.192c-7.516,7.563 -15.015,15.144 -22.56,22.679c-6.591,6.582 -9.762,6.608 -16.284,0.101c-7.194,-7.178 -14.297,-14.448 -21.513,-21.604c-1.696,-1.682 -3.173,-4.406 -6.144,-3.393c-3.188,1.087 -2.121,4.157 -2.218,6.494c-0.803,19.309 -1.595,38.618 -2.211,57.934c-0.125,3.925 -1.286,5.735 -5.546,5.596c-7.989,-0.26 -15.999,-0.26 -23.988,-0.002c-4.349,0.141 -5.437,-1.693 -5.259,-5.67c1.269,-28.454 2.399,-56.915 3.597,-85.373c0.665,-15.808 1.305,-31.62 2.128,-47.42c0.172,-3.314 -0.625,-7.406 3.677,-9.024c4.297,-1.615 6.325,1.94 8.686,4.352c16.895,17.264 33.737,34.583 50.608,51.873c5.638,5.778 6.869,5.785 12.478,0.03c16.861,-17.299 33.706,-34.614 50.557,-51.924c0.581,-0.597 1.153,-1.202 1.731,-1.802c1.919,-1.991 3.991,-3.694 7.002,-2.587c3.034,1.115 3.451,3.764 3.575,6.532c0.686,15.309 1.372,30.62 2.065,45.929c0.346,7.654 0.707,15.308 1.061,22.961c-0.039,0.002 -0.077,0.004 -0.116,0.005Z" style="fill:#7060a2;"/><path d="M1065.39,864.052c-5.81,11.813 -11.09,22.519 -16.35,33.234c-5.78,11.796 -11.53,23.612 -17.34,35.397c-1.26,2.547 -2.53,5.175 -6.04,5.18c-3.62,0.005 -4.53,-2.847 -5.77,-5.375c-13.02,-26.414 -26.05,-52.819 -39.04,-79.244c-2.68,-5.457 -2.18,-6.177 3.99,-6.202c6.83,-0.025 13.68,0.279 20.49,-0.108c4.31,-0.245 6.23,1.593 7.75,5.293c3.83,9.376 8,18.618 12.02,27.884c2.04,-0.155 2.02,-1.77 2.48,-2.837c3.64,-8.39 7.32,-16.765 10.73,-25.249c1.42,-3.535 3.31,-5.163 7.38,-5.084c13.16,0.255 26.32,0.224 39.48,0.019c4.08,-0.062 6.38,1.35 8.1,5.061c5.03,10.863 10.39,21.574 15.63,32.341c0.55,1.138 1.16,2.248 1.98,3.82c2.87,-3.951 4.12,-8.095 5.91,-11.942c3.78,-8.145 7.52,-16.314 11.02,-24.581c1.46,-3.431 3.62,-4.76 7.28,-4.673c7.49,0.177 14.99,-0.007 22.49,0.07c5.32,0.055 6.21,1.382 3.81,5.902c-24.34,45.851 -48.75,91.667 -73.06,137.535c-1.71,3.218 -3.93,4.506 -7.56,4.402c-7.16,-0.206 -14.32,-0.03 -21.49,-0.066c-5.84,-0.03 -6.21,-0.669 -3.19,-5.946c12.31,-21.522 24.62,-43.05 37.09,-64.483c1.52,-2.617 1.66,-4.508 0.21,-7.211c-9.25,-17.285 -18.31,-34.679 -28,-53.137Z" style="fill:#7060a2;"/><path d="M575.682,897.247c7.22,0.361 13.16,-4.561 13.39,-11.091c0.23,-6.5 -4.85,-11.715 -11.86,-12.172c-7.05,-0.46 -13.72,4.986 -13.93,11.382c-0.21,6.01 5.56,11.54 12.4,11.881Zm0.55,74.607c5.2,0.208 10.2,-0.033 14.74,-2.382c6.08,-3.149 6.72,-11.245 0.77,-13.932c-8.05,-3.637 -16.79,-5.193 -25.66,-3.752c-5.07,0.823 -7.69,4.513 -7.73,9.493c-0.03,5.012 2.58,8.066 7.23,9.466c3.52,1.062 7.16,1.341 10.65,1.107Zm-30.2,-28.002c-11.2,-3.205 -19.82,-8.717 -19.69,-21.415c0.08,-9.015 6.28,-12.947 14.7,-14.487c-1.47,-2.453 -2.86,-4.491 -3.96,-6.678c-10.52,-20.997 2.32,-47.181 26.33,-53.893c6.9,-1.927 13.87,-1.747 20.84,-0.977c10.61,1.173 21.22,2.095 31.9,1.386c4.48,-0.297 6.64,1.207 5.94,5.999c-0.4,2.792 -0.51,5.641 -0.55,8.468c-0.06,3.368 -1.15,5.885 -4.77,6.499c-2.46,0.417 -2.36,1.697 -1.56,3.53c2.21,5.122 3.07,10.511 2.92,16.071c-0.44,16.96 -9.57,28.113 -26.15,31.858c-9.77,2.208 -19.52,1.747 -29.22,-0.528c-2.43,-0.57 -4.86,-1.257 -7.38,-0.997c-2.13,0.219 -3.94,1.077 -4.35,3.422c-0.39,2.239 1.22,3.332 2.91,4.139c6.81,3.234 14.24,3.107 21.49,3.82c10.45,1.028 20.93,1.887 31.01,4.963c16.3,4.97 23.89,17.27 20.69,33.07c-1.69,8.288 -6.81,14.267 -13.98,17.892c-21.25,10.739 -43.37,12.471 -65.7,3.841c-10.45,-4.039 -17.14,-11.887 -17.87,-23.725c-0.61,-9.732 3.52,-16.271 12.53,-19.927c1.21,-0.488 2.68,-0.45 3.92,-2.331Z" style="fill:#7060a2;"/><path d="M827.842,792.713c13.17,-0.005 26.33,-0.032 39.49,0.009c5.64,0.017 6.77,1.125 6.83,6.691c0.06,6.164 0.05,12.33 0,18.495c-0.05,5.728 -1.32,7.022 -7.11,7.039c-15.33,0.044 -30.66,0.005 -45.99,0.021c-6.53,0.008 -7.14,0.638 -7.18,7.139c-0.02,2.833 -0.02,5.666 0,8.498c0.05,6.711 1.42,8.056 8.34,8.073c9.66,0.025 19.33,-0.023 28.99,0.021c5.51,0.025 6.86,1.331 6.91,6.703c0.07,6.331 -0.05,12.664 0.04,18.994c0.06,4.617 -2.07,6.659 -6.68,6.615c-10.17,-0.096 -20.33,-0.053 -30.49,-0.013c-5.51,0.022 -7.02,1.559 -7.1,7.165c-0.06,3.666 0.1,7.335 -0.04,10.997c-0.15,4.269 1.76,5.951 6.01,5.919c15.5,-0.116 30.99,-0.053 46.49,-0.039c6.73,0.006 7.79,1.078 7.82,7.849c0.02,5.998 -0.08,11.998 0.03,17.994c0.07,4.09 -1.47,6.175 -5.84,6.164c-26.82,-0.071 -53.65,-0.001 -80.47,-0.067c-5.92,-0.014 -9.1,-3.036 -9.11,-8.857c-0.07,-42.154 -0.07,-84.309 0.01,-126.463c0.01,-5.879 3.13,-8.86 9.07,-8.908c13.32,-0.109 26.65,-0.034 39.98,-0.039Z" style="fill:#7060a2;"/><path d="M1002.01,606.574c34.142,0 68.287,-0.101 102.429,0.044c15.797,0.069 30.453,-3.403 43.962,-11.838c9.784,-6.108 14.137,-3.736 14.314,7.756c0.218,14.312 0.368,28.647 -0.124,42.948c-1.609,46.913 -35.947,80.304 -83.021,80.46c-67.185,0.223 -134.372,0.24 -201.556,-0.055c-17.726,-0.079 -34.16,2.951 -49.228,12.788c-7.496,4.898 -12.643,2.599 -12.574,-5.856c0.165,-20.873 -2.416,-41.91 1.988,-62.596c7.908,-37.15 40.065,-63.333 78.073,-63.569c35.244,-0.221 70.493,-0.049 105.737,-0.049c0,-0.009 0,-0.022 0,-0.033Z" style="fill:#7060a2;"/><path d="M887.332,891.642c0,-12.825 0.1,-25.652 -0.05,-38.477c-0.06,-4.439 1.46,-6.447 6.11,-6.186c4.81,0.269 9.66,0.139 14.48,0.027c2.65,-0.06 4.49,0.762 5.43,3.373c1.33,3.713 3.18,4.016 6.7,1.868c16.85,-10.287 36.97,-7.828 49.81,5.756c5.71,6.032 9.08,13.244 9.4,21.494c0.41,10.479 0.27,20.981 0.28,31.473c0.01,6.999 -0.09,13.995 1.45,20.887c0.79,3.529 -0.29,5.349 -4.29,5.21c-5.83,-0.203 -11.66,-0.019 -17.49,-0.064c-7.57,-0.057 -10.66,-2.923 -10.8,-10.504c-0.17,-9.657 -0.04,-19.32 -0.06,-28.981c0,-2.164 0,-4.334 -0.16,-6.49c-0.87,-11.692 -10.91,-17.851 -21.77,-13.387c-5.82,2.395 -7.57,4.998 -7.58,11.325c0,13.825 0.03,27.651 -0.01,41.475c-0.02,5.886 -0.74,6.549 -6.64,6.569c-6.17,0.021 -12.35,-0.277 -18.49,0.092c-5.03,0.303 -6.4,-1.975 -6.36,-6.483c0.12,-12.992 0.04,-25.985 0.04,-38.977Z" style="fill:#7060a2;"/><path d="M206.95,916.189c5.504,0.041 10.317,-1.985 14.855,-4.912c4.154,-2.68 2.341,-6.755 1.734,-9.947c-0.531,-2.783 -3.638,-0.917 -5.585,-0.774c-4.642,0.342 -9.169,1.296 -13.474,3.14c-3.513,1.505 -6.914,3.352 -5.871,7.934c0.981,4.311 4.723,4.549 8.341,4.559Zm45.189,-20.775c0.169,13.27 1.046,24.214 2.035,35.155c0.537,5.928 0.044,6.409 -5.664,6.441c-3.996,0.023 -7.996,-0.107 -11.986,0.039c-3.521,0.13 -6.701,-0.273 -8.556,-3.744c-1.086,-2.031 -2.256,-1.226 -3.613,-0.336c-11.549,7.573 -24.06,6.952 -36.534,3.527c-10.54,-2.896 -16.324,-10.461 -17.507,-21.343c-1.101,-10.128 2.944,-17.874 11.48,-23.215c11.092,-6.941 23.715,-9.351 36.274,-11.896c1.699,-0.343 4.24,0.253 4.612,-1.929c0.411,-2.409 -1.769,-3.888 -3.775,-4.727c-5.933,-2.48 -12.115,-1.672 -18.217,-0.843c-4.46,0.606 -8.774,1.953 -12.943,3.657c-3.606,1.474 -6.037,1.002 -7.093,-3.252c-1.079,-4.343 -2.476,-8.609 -3.759,-12.9c-0.959,-3.206 -0.088,-5.409 3.144,-6.782c14.883,-6.326 30.23,-9.209 46.294,-6c18.662,3.73 27.573,15.514 26.445,34.459c-0.316,5.315 -0.497,10.639 -0.637,13.689Z" style="fill:#7060a2;"/><path d="M466.722,916.185c5.72,0.08 10.66,-2.147 15.24,-5.271c3.65,-2.48 1.4,-6.052 1.43,-9.158c0.02,-1.926 -1.59,-1.844 -2.93,-1.659c-5.56,0.772 -11.19,1.272 -16.41,3.632c-3.28,1.485 -6.66,3.197 -5.86,7.513c0.84,4.597 4.71,4.969 8.53,4.943Zm45.71,-18.109c-0.55,11.012 0.26,21.978 1.59,32.897c0.58,4.679 -1.16,6.404 -5.79,6.101c-4.15,-0.274 -8.33,-0.167 -12.5,-0.026c-3.37,0.115 -6.31,-0.403 -8.04,-3.719c-1.02,-1.952 -2.19,-1.298 -3.64,-0.38c-12.28,7.788 -25.33,7.102 -38.42,2.826c-9.28,-3.032 -14.23,-10.04 -15.5,-19.617c-1.26,-9.537 1.64,-17.451 9.67,-23.102c9.78,-6.882 21.19,-9.389 32.57,-11.939c2.43,-0.546 4.91,-0.898 7.37,-1.301c3.38,-0.553 3.24,-2.303 1.44,-4.439c-1.95,-2.314 -4.69,-3.04 -7.58,-3.315c-8.63,-0.82 -16.92,0.637 -24.99,3.689c-6.11,2.312 -6.84,1.903 -8.74,-4.431c-1.09,-3.67 -2.16,-7.352 -3.31,-11.004c-1,-3.169 -0.36,-5.525 2.9,-6.912c16.7,-7.101 33.83,-10.205 51.6,-4.732c14.96,4.611 22.05,15.323 21.41,30.917c-0.25,6.153 -0.04,12.324 -0.04,18.487Z" style="fill:#7060a2;"/><path d="M674.552,883.148c0,-0.136 0.01,-0.272 0.01,-0.407c3.65,0 7.31,0.115 10.95,-0.05c1.71,-0.077 3.99,0.509 4.84,-1.639c0.87,-2.196 -0.14,-4.235 -1.53,-5.998c-6.38,-8.118 -24.06,-5.753 -28.33,3.731c-1.09,2.418 -0.88,3.754 2.12,3.842c3.98,0.118 7.96,0.342 11.94,0.521Zm-15.74,18.486c3.37,8.389 9.87,10.296 16.72,11.165c8.7,1.104 17.34,0.179 25.48,-3.192c4.5,-1.863 7.24,-1.234 9.81,3.162c5.06,8.648 5.02,9.937 -3.11,16.245c-17.33,13.448 -46.82,12.248 -63.01,-2.564c-16.61,-15.194 -20,-41.176 -7.38,-60.198c10.01,-15.092 24.59,-21.605 42.46,-19.96c15.8,1.455 28.15,8.7 35.09,23.601c1.77,3.796 2.83,7.799 3.19,12.007c1.12,13.068 -4.36,19.208 -17.41,20.073c-13.64,0.904 -27.25,1.421 -41.84,-0.339Z" style="fill:#7060a2;"/><path d="M385.152,938.15c-13.34,0.2 -23.8,-3.76 -33.713,-9.57c-3.779,-2.213 -4.653,-4.79 -1.878,-8.522c2.678,-3.602 5.109,-7.395 7.515,-11.189c1.863,-2.939 4.049,-3.554 7.136,-1.84c4.95,2.748 10.18,4.906 15.65,6.393c5.93,1.612 10.53,0.592 10.87,-2.627c0.569,-5.515 -4.36,-5.53 -7.71,-6.707c-5.78,-2.027 -11.9,-3.043 -17.29,-6.211c-13.053,-7.662 -19.117,-21.589 -14.211,-33.767c4.636,-11.508 14.461,-16.118 25.861,-17.725c12.74,-1.795 24.799,0.547 36.03,7.129c3.93,2.306 4.79,4.529 1.86,8.271c-2.87,3.659 -5.45,7.554 -7.98,11.467c-1.91,2.975 -4.14,3.362 -7.2,1.844c-4.62,-2.29 -9.3,-4.552 -14.531,-5.024c-3.169,-0.287 -6.989,-0.593 -7.719,3.521c-0.69,3.927 2.97,4.652 5.83,5.476c7.35,2.111 14.79,3.849 21.58,7.605c13.09,7.251 18.87,19.442 14.3,31.471c-4.11,10.81 -13.08,15.912 -23.68,18.727c-4.04,1.076 -8.191,1.317 -10.72,1.278Z" style="fill:#7060a2;"/><path d="M303.255,938.165c-13.583,0.147 -24.199,-3.83 -34.207,-9.879c-3.407,-2.06 -4.095,-4.465 -1.716,-7.82c2.695,-3.802 5.243,-7.712 7.755,-11.638c1.879,-2.935 4.12,-3.493 7.185,-1.782c5.1,2.847 10.496,5.067 16.141,6.549c5.58,1.466 10.06,0.223 10.365,-2.885c0.51,-5.206 -4.181,-5.308 -7.344,-6.537c-3.545,-1.378 -7.352,-2.063 -10.964,-3.291c-7.634,-2.594 -13.996,-6.997 -18.297,-13.948c-8.373,-13.531 -4.205,-29.658 10.169,-36.419c17.359,-8.164 34.35,-5.722 50.536,3.945c2.394,1.429 3.069,3.397 1.349,5.867c-3.141,4.51 -6.295,9.012 -9.374,13.564c-1.797,2.656 -3.982,2.511 -6.523,1.272c-3.594,-1.75 -7.209,-3.482 -11.141,-4.364c-1.61,-0.361 -3.254,-0.666 -4.897,-0.776c-2.792,-0.189 -5.672,0.124 -6.4,3.387c-0.783,3.512 2.152,4.547 4.689,5.365c3.793,1.222 7.696,2.098 11.514,3.248c5.776,1.737 11.256,4.16 16.094,7.81c14.819,11.182 14.315,30.891 -1.06,41.263c-7.715,5.206 -16.348,7.248 -23.874,7.069Z" style="fill:#7060a2;"/><path d="M1146.97,936.433l0,-12.103l-5.12,0l0,-1.619l12.31,0l0,1.619l-5.14,0l0,12.103l-2.05,0Z" style="fill:#7060a2;fill-rule:nonzero;"/><path d="M1156.2,936.433l0,-13.722l3.09,0l3.67,9.716c0.34,0.904 0.59,1.582 0.74,2.031c0.18,-0.5 0.46,-1.232 0.83,-2.2l3.72,-9.547l2.76,0l0,13.722l-1.98,0l0,-11.485l-4.51,11.485l-1.85,0l-4.49,-11.682l0,11.682l-1.98,0Z" style="fill:#7060a2;fill-rule:nonzero;"/></g></svg>