<?xml version="1.0" encoding="UTF-8" standalone="no"?>
<!DOCTYPE svg PUBLIC "-//W3C//DTD SVG 1.1//EN" "http://www.w3.org/Graphics/SVG/1.1/DTD/svg11.dtd">
<svg width="100%" height="100%" viewBox="0 0 226 251" version="1.1" xmlns="http://www.w3.org/2000/svg" xmlns:xlink="http://www.w3.org/1999/xlink" xml:space="preserve" style="fill-rule:evenodd;clip-rule:evenodd;stroke-linejoin:round;stroke-miterlimit:1.41421;">
    <g transform="matrix(1,0,0,1,-102.894,-218.844)">
        <g id="OCTA" transform="matrix(1.77653,0,0,2.23539,85.58,-57.7024)">
            <g transform="matrix(0.606712,0,0,0.482172,15.5016,132.086)">
                <path d="M59.669,174.114C59.669,184.659 51.146,190.599 40.145,190.599C28.471,190.599 20.671,184.573 20.671,174.028C20.671,164.3 28.574,157.973 40.145,157.973C53.419,157.973 59.669,165.936 59.669,174.114ZM32.861,174.114C32.861,178.073 34.307,183.024 40.145,183.024C45.413,183.024 47.479,179.236 47.479,174.114C47.479,169.896 45.413,165.419 40.041,165.548C34.514,165.548 32.861,170.197 32.861,174.114Z" style="fill:rgb(12,99,157);"/>
            </g>
            <g transform="matrix(0.606712,0,0,0.482172,15.5016,132.086)">
                <path d="M88.48,170.627C88.118,167.399 85.69,165.548 81.868,165.548C77.581,165.548 74.998,168.604 74.998,174.587C74.998,178.934 76.135,183.024 82.333,183.024C86.259,183.024 88.118,180.742 88.583,177.772L100.308,177.772C99.224,185.778 92.354,190.599 82.54,190.599C70.246,190.599 62.808,184.315 62.808,174.243C62.808,164.214 70.97,157.973 81.352,157.973C92.716,157.973 99.069,162.664 100.05,170.627L88.48,170.627Z" style="fill:rgb(12,99,157);"/>
            </g>
            <g transform="matrix(0.606712,0,0,0.482172,15.5016,132.086)">
                <path d="M102.418,158.79L136.509,158.79L136.509,166.926L125.559,166.926L125.559,189.781L113.369,189.781L113.369,166.926L102.418,166.926L102.418,158.79Z" style="fill:rgb(12,99,157);"/>
            </g>
            <g transform="matrix(0.606712,0,0,0.482172,15.5016,132.086)">
                <path d="M133.51,189.781L146.837,158.79L159.234,158.79L172.56,189.781L160.422,189.781L158.975,185.692L146.837,185.692L145.442,189.781L133.51,189.781ZM152.932,168.131L149.161,179.236L156.858,179.236L152.932,168.131Z" style="fill:rgb(12,99,157);"/>
            </g>
            <g transform="matrix(0.606712,0,0,0.482172,15.5016,132.086)">
                <path d="M163.378,147.699L163.894,147.699C169.252,147.699 173.597,143.356 173.597,137.997L173.597,13.215C173.597,7.857 169.252,3.512 163.894,3.512L96.75,3.512L96.525,3.512L29.38,3.512C24.022,3.512 19.678,7.857 19.678,13.215L19.678,137.997C19.678,143.356 24.022,147.699 29.38,147.699L29.822,147.699L90.928,14.922L72.887,147.699L120.406,147.699L102.347,14.922L163.378,147.699Z" style="fill:rgb(12,99,157);"/>
            </g>
        </g>
    </g>
</svg>
