<?xml version="1.0" encoding="UTF-8" standalone="no"?>
<!DOCTYPE svg PUBLIC "-//W3C//DTD SVG 1.1//EN" "http://www.w3.org/Graphics/SVG/1.1/DTD/svg11.dtd">
<svg width="100%" height="100%" viewBox="0 0 287 203" version="1.1" xmlns="http://www.w3.org/2000/svg" xmlns:xlink="http://www.w3.org/1999/xlink" xml:space="preserve" style="fill-rule:evenodd;clip-rule:evenodd;stroke-linejoin:round;stroke-miterlimit:1.41421;">
    <g transform="matrix(1,0,0,1,-6.75215,-1024.36)">
        <g id="State-Farm" transform="matrix(1,0,0,0.759501,5.23551,251.54)">
            <g transform="matrix(2.62002,0,0,3.44966,-599.606,1207.47)">
                <path d="M331.947,5.645L332.487,5.645L333.418,8.134L334.357,5.645L334.897,5.645L334.897,8.607L334.525,8.607L334.525,6.143L334.516,6.143L333.589,8.607L333.254,8.607L332.329,6.143L332.32,6.143L332.32,8.607L331.947,8.607L331.947,5.645ZM330.229,5.977L329.24,5.977L329.24,5.645L331.608,5.645L331.608,5.977L330.622,5.977L330.622,8.607L330.229,8.607L330.229,5.977ZM244.805,2.506L244.221,5.498L244.094,5.541C243.861,5.215 243.723,5.087 243.401,4.839C242.684,4.288 241.838,3.976 240.972,3.976C240.292,3.976 239.731,4.187 239.338,4.54C238.944,4.894 238.722,5.393 238.722,5.952C238.724,7.007 239.445,7.522 240.731,8.294L241.231,8.577C242.31,9.283 243.98,10.366 243.981,12.824C243.976,15.614 242.187,18.418 237.895,18.422C236.842,18.422 235.812,18.236 234.822,17.862C234.152,17.61 233.83,17.385 233.424,17.088L233.392,16.895L233.961,13.974L234.089,13.93C234.345,14.263 234.671,14.537 235.157,14.858C236.189,15.547 237.181,15.621 237.605,15.621C239.122,15.62 240.311,14.755 240.311,13.411C240.309,12.21 239.359,11.606 238.364,11.02L237.679,10.597C236.6,9.889 235.097,8.926 235.094,6.517C235.094,5.589 235.361,4.26 236.183,3.171C237.264,1.737 238.967,1.222 240.68,1.22C242.888,1.222 244.152,2.002 244.742,2.382L244.805,2.506ZM251.991,8.175L251.859,8.304L249.947,8.257L249.06,12.43C248.937,12.953 248.665,14.259 248.665,14.681C248.664,15.074 248.809,15.342 249.017,15.502C249.225,15.662 249.48,15.714 249.708,15.715C250.242,15.715 250.428,15.567 250.783,15.431L250.844,15.492L250.375,17.893L250.212,18.052C249.558,18.191 249.07,18.305 248.38,18.305C246.601,18.294 245.315,17.697 245.308,15.622C245.308,14.65 245.702,12.883 245.992,11.567L246.697,8.255L245.193,8.304L245.105,8.174L245.543,5.84L245.681,5.763L247.207,5.763L247.82,2.689L247.938,2.555C249.465,2.164 249.909,1.975 251.301,1.517L251.373,1.6L250.911,3.583L250.436,5.811L252.394,5.755L252.447,5.854L251.991,8.175ZM258.682,14.493C258.682,14.493 258.019,15.534 257.061,15.907C256.101,16.28 255.415,15.985 255.139,15.614C254.922,15.325 254.468,14.408 255.332,13.377C256.206,12.338 259.101,12.272 259.101,12.272L258.682,14.493ZM261.539,6.287C260.837,5.793 259.713,5.538 258.177,5.538C257.417,5.538 256.651,5.611 255.883,5.757C255.195,5.887 254.767,5.998 254.404,6.104L254.305,6.205L253.807,8.76L253.967,8.858C254.288,8.711 254.759,8.528 255.377,8.31C256.014,8.086 256.595,7.974 257.124,7.974C257.896,7.974 258.478,8.079 258.883,8.298C259.29,8.517 259.587,9.005 259.586,9.543C259.586,9.673 259.577,9.789 259.556,9.894C259.538,9.992 259.523,10.063 259.521,10.105L259.513,10.161C259.513,10.161 259.263,10.176 258.999,10.201C258.821,10.216 258.601,10.24 258.345,10.272C257.92,10.318 257.436,10.378 257.013,10.449C255.997,10.619 253.141,11.061 252.285,12.976C251.385,14.545 251.541,16.623 252.421,17.637C252.731,17.994 253.208,18.331 253.848,18.461L253.847,18.463C253.876,18.469 253.976,18.484 253.995,18.489C256.467,18.871 258.238,16.717 258.238,16.717L257.972,18.046L258.083,18.139L260.861,18.046L260.971,17.946L262.605,9.74C262.641,9.567 262.667,9.362 262.689,9.13C262.708,8.894 262.719,8.705 262.719,8.562C262.716,7.511 262.243,6.783 261.539,6.287ZM328.167,8.464C328.167,9.206 328.001,9.977 327.836,10.728L326.418,17.96L326.31,18.046L323.122,18.158L323.041,18.046C323.041,18.046 324.676,10.059 324.676,9.662C324.676,9.299 324.487,8.33 323.468,8.33C322.67,8.33 321.843,9.138 321.843,9.138L320.122,17.96L320.015,18.046L318.641,18.094L318.641,18.093L317.413,18.136L316.803,18.158L316.765,18.105L316.727,18.046C316.727,18.046 316.976,16.83 317.28,15.325L317.273,15.325C317.75,12.97 318.358,9.905 318.358,9.662C318.358,9.299 318.168,8.33 317.15,8.33C316.353,8.33 315.526,9.138 315.526,9.138L313.802,17.96L313.697,18.046L313.203,18.064L310.485,18.154L310.417,18.046L312.808,5.763L312.928,5.643L316.111,5.342L316.239,5.473L315.902,7.201C315.902,7.201 317.436,5.521 319.396,5.48C321.223,5.446 321.606,7.201 321.606,7.201C321.606,7.201 323.424,5.438 325.363,5.48C326.344,5.488 328.162,5.922 328.167,8.464ZM311.846,5.37L311.168,8.9L311.024,9.044C310.83,9.01 310.583,8.98 310.291,8.98C309.375,8.979 308.072,9.273 307.053,10.625L307.042,10.636L305.639,17.96L305.54,18.046L302.493,18.136L302.413,18.058L304.809,5.763L304.94,5.635L307.957,5.342L308.077,5.473L307.729,7.253L307.875,7.118C308.505,6.548 309.066,6.15 309.693,5.794C310.311,5.439 310.931,5.261 311.554,5.261C311.615,5.261 311.678,5.262 311.743,5.266L311.846,5.37ZM298.374,14.493C298.374,14.493 297.71,15.534 296.752,15.907C295.792,16.28 295.102,15.985 294.83,15.614C294.612,15.325 294.159,14.408 295.022,13.377C295.896,12.338 298.79,12.272 298.79,12.272L298.374,14.493ZM301.23,6.287C300.528,5.793 299.405,5.538 297.869,5.538C297.108,5.538 296.342,5.611 295.572,5.757C294.886,5.887 294.458,5.998 294.093,6.104L293.994,6.205L293.496,8.76L293.657,8.858C293.979,8.711 294.448,8.528 295.07,8.31C295.703,8.086 296.286,7.974 296.815,7.974C297.584,7.974 298.169,8.079 298.573,8.298C298.982,8.517 299.278,9.005 299.277,9.543C299.277,9.673 299.266,9.789 299.248,9.894C299.227,9.992 299.214,10.063 299.21,10.105L299.204,10.161C299.204,10.161 298.955,10.176 298.69,10.201C298.513,10.216 298.291,10.24 298.036,10.272C297.611,10.318 297.126,10.378 296.705,10.449C295.687,10.619 292.831,11.061 291.975,12.976C291.077,14.545 291.231,16.623 292.113,17.637C292.422,17.994 292.897,18.331 293.539,18.461L293.539,18.463C293.567,18.469 293.666,18.484 293.685,18.489C296.158,18.871 297.927,16.717 297.927,16.717L297.664,18.046L297.771,18.139L300.549,18.046L300.662,17.946L302.296,9.74C302.332,9.567 302.358,9.362 302.378,9.13C302.396,8.894 302.408,8.705 302.408,8.562C302.407,7.511 301.933,6.783 301.23,6.287ZM294.093,4.237L293.989,4.352L288.94,4.342L288.118,8.556L292.536,8.423L292.602,8.526C292.238,9.741 292.154,10.082 291.909,11.138L291.796,11.246L287.594,11.237L287.041,14.162L286.341,17.96L286.25,18.046L282.627,18.139L282.585,18.046L283.212,14.814L284.17,10.249C284.895,6.702 285.104,5.569 285.787,1.707L285.896,1.597L291.186,1.597L294.545,1.512L294.61,1.597L294.093,4.237ZM270.489,8.175L270.358,8.304L268.444,8.257L267.559,12.43C267.433,12.953 267.164,14.259 267.164,14.681C267.162,15.074 267.307,15.342 267.515,15.502C267.721,15.662 267.979,15.714 268.207,15.715C268.739,15.715 268.926,15.567 269.281,15.431L269.342,15.492L268.874,17.893L268.711,18.052C268.057,18.191 267.569,18.305 266.876,18.305C265.1,18.294 263.814,17.697 263.805,15.622C263.805,14.65 264.199,12.883 264.49,11.567L265.195,8.255L263.692,8.304L263.603,8.174L264.041,5.84L264.179,5.763L265.706,5.763L266.316,2.689L266.435,2.555C267.962,2.164 268.404,1.975 269.799,1.517L269.871,1.6L269.408,3.583L268.933,5.811L270.891,5.755L270.945,5.854L270.489,8.175ZM278.039,10.365L278.029,10.422L276.083,10.445L274.162,10.469L274.18,10.406L274.189,10.379C274.226,10.242 274.266,10.094 274.316,9.944C274.45,9.52 274.638,9.06 274.973,8.637C275.031,8.563 275.091,8.492 275.16,8.421C275.753,7.771 276.318,7.669 276.682,7.669C277.199,7.669 277.577,7.875 277.818,8.182C277.859,8.234 277.892,8.289 277.926,8.347C278.045,8.55 278.118,8.785 278.145,9.025C278.159,9.113 278.164,9.204 278.164,9.293C278.164,9.655 278.099,10.01 278.039,10.365ZM279.351,6.152L279.386,6.093L279.349,6.151C278.679,5.692 277.713,5.48 276.767,5.48C274.618,5.481 273.083,6.544 272.075,8.036C271.07,9.53 270.598,11.459 270.598,13.174C270.598,14.415 270.783,15.572 271.541,16.615C271.914,17.125 272.816,18.348 275.73,18.353C277.758,18.351 278.718,17.826 279.237,17.521L279.324,17.403C279.424,16.961 279.768,14.943 279.907,14.437L279.799,14.357C278.778,15.17 277.662,15.762 276.393,15.762C275.543,15.762 274.894,15.559 274.459,15.172C274.024,14.783 273.808,14.213 273.811,13.505C273.811,13.243 273.831,13.005 273.852,12.745L273.858,12.683L273.917,12.681C275.901,12.63 276.912,12.603 278.573,12.603C279.115,12.603 279.727,12.605 280.466,12.611L280.593,12.521C280.759,11.752 280.94,10.871 280.94,9.788C280.94,8.826 280.837,7.119 279.351,6.152Z" style="fill:rgb(236,31,39);fill-rule:nonzero;"/>
            </g>
            <g transform="matrix(6.44441,0,0,8.48506,-1696.84,1274.75)">
                <path d="M293.001,-10.98C291.425,-10.98 289.969,-11.402 288.896,-12.172C287.965,-12.841 287.442,-13.699 287.442,-14.586C287.445,-15.777 288.359,-16.594 288.896,-16.975C289.973,-17.739 291.436,-18.154 293.015,-18.154C294.599,-18.154 296.067,-17.737 297.154,-16.973C297.698,-16.591 298.618,-15.775 298.621,-14.586C298.612,-12.602 296.029,-10.982 293.001,-10.98ZM284.566,-17.999C285.124,-17.895 285.71,-17.839 286.314,-17.839C286.933,-17.839 287.533,-17.898 288.102,-18.005C287.254,-17.394 286.635,-16.621 286.341,-15.753C286.042,-16.618 285.417,-17.389 284.566,-17.999ZM279.609,-10.98C278.038,-10.98 276.582,-11.402 275.506,-12.172C274.576,-12.841 274.054,-13.699 274.054,-14.586C274.056,-15.777 274.97,-16.594 275.508,-16.977C276.584,-17.739 278.046,-18.156 279.628,-18.156C281.211,-18.156 282.68,-17.739 283.766,-16.973C284.309,-16.589 285.232,-15.775 285.235,-14.586C285.224,-12.602 282.639,-10.982 279.609,-10.98ZM280.758,-22.747C280.76,-23.94 281.675,-24.757 282.212,-25.138C283.291,-25.901 284.751,-26.317 286.332,-26.317C287.917,-26.317 289.386,-25.899 290.471,-25.137C291.013,-24.752 291.935,-23.936 291.939,-22.747C291.927,-20.764 289.343,-19.144 286.316,-19.142C284.742,-19.142 283.285,-19.563 282.212,-20.334C281.281,-21.003 280.758,-21.859 280.758,-22.747ZM293.015,-19.455C292.396,-19.455 291.797,-19.397 291.228,-19.29C292.471,-20.177 293.237,-21.4 293.237,-22.747C293.237,-25.458 290.156,-27.617 286.332,-27.617C282.508,-27.617 279.459,-25.458 279.459,-22.747C279.459,-21.395 280.212,-20.174 281.442,-19.285C280.864,-19.395 280.256,-19.455 279.627,-19.455C275.803,-19.455 272.753,-17.297 272.753,-14.586C272.753,-11.876 275.788,-9.679 279.609,-9.679C282.865,-9.679 285.597,-11.271 286.337,-13.416C287.063,-11.271 289.744,-9.679 292.997,-9.679C296.821,-9.679 299.922,-11.876 299.922,-14.586C299.922,-17.297 296.839,-19.455 293.015,-19.455ZM297.999,-14.578C297.999,-13.765 297.455,-13.018 296.55,-12.469C295.649,-11.921 294.393,-11.579 293.008,-11.579C291.622,-11.579 290.38,-11.921 289.49,-12.469C288.598,-13.018 288.063,-13.765 288.066,-14.578C288.063,-15.394 288.601,-16.137 289.496,-16.677C290.387,-17.22 291.634,-17.555 293.019,-17.554C294.406,-17.555 295.657,-17.22 296.556,-16.677C297.457,-16.137 297.999,-15.394 297.999,-14.578ZM281.383,-22.742C281.382,-23.556 281.919,-24.298 282.812,-24.84C283.706,-25.38 284.952,-25.717 286.337,-25.716C287.721,-25.717 288.974,-25.38 289.873,-24.84C290.773,-24.297 291.315,-23.556 291.315,-22.742C291.315,-21.928 290.769,-21.18 289.866,-20.63C288.964,-20.083 287.712,-19.742 286.326,-19.742C284.938,-19.742 283.697,-20.083 282.807,-20.63C281.915,-21.18 281.382,-21.927 281.383,-22.742ZM284.611,-14.578C284.611,-13.765 284.067,-13.018 283.163,-12.469C282.259,-11.921 281.006,-11.579 279.62,-11.579C278.233,-11.579 276.992,-11.921 276.103,-12.469C275.211,-13.018 274.676,-13.765 274.678,-14.578C274.676,-15.394 275.212,-16.137 276.107,-16.678C277.001,-17.22 278.246,-17.554 279.632,-17.554C281.018,-17.554 282.269,-17.22 283.168,-16.678C284.068,-16.136 284.611,-15.394 284.611,-14.578Z" style="fill:rgb(236,31,39);fill-rule:nonzero;"/>
            </g>
        </g>
    </g>
</svg>
