<?xml version="1.0" encoding="UTF-8" standalone="no"?>
<!DOCTYPE svg PUBLIC "-//W3C//DTD SVG 1.1//EN" "http://www.w3.org/Graphics/SVG/1.1/DTD/svg11.dtd">
<svg width="100%" height="100%" viewBox="0 0 279 237" version="1.1" xmlns="http://www.w3.org/2000/svg" xmlns:xlink="http://www.w3.org/1999/xlink" xml:space="preserve" style="fill-rule:evenodd;clip-rule:evenodd;stroke-linecap:round;stroke-linejoin:round;stroke-miterlimit:1.41421;">
    <g transform="matrix(1,0,0,1,-11.4995,-724.862)">
        <g id="UFC-Gym" transform="matrix(0.573255,0,0,0.565133,-148.295,716.156)">
            <g transform="matrix(0.95602,0,0,0.96976,233.843,-33.3376)">
                <path d="M99.797,66.025L155.272,66.025L122.21,182.941C122.21,182.941 118.986,191.539 121.739,195.113C123.378,197.707 130.102,197.352 130.102,197.352L141.847,197.281C141.847,197.281 146.684,197.156 148.374,195.632C149.761,194.792 151.484,190.432 151.484,190.432L186.669,65.378L243.912,66.212L204.056,208.352C204.056,208.352 201.231,221.155 193.115,227.139C184.435,233.094 170.988,232.917 170.988,232.917L87.873,233.221C87.873,233.221 73.501,234.205 65.56,225.973C56.69,219.011 60.45,205.117 60.45,205.117L99.797,66.025Z" style="fill:black;stroke-width:2.74px;stroke:black;"/>
            </g>
            <g transform="matrix(0.95602,0,0,0.96976,233.843,-33.3376)">
                <path d="M270.634,67.139L392.847,66.736L383.376,102.274L260.067,102.747L270.634,67.139Z" style="fill:black;stroke-width:2.74px;stroke:black;"/>
            </g>
            <g transform="matrix(0.95602,0,0,0.96976,233.843,-33.3376)">
                <path d="M253.468,128.806L375.955,128.678L366.707,164.265L300.204,164.739L281.009,233.063L224.284,233.409L253.468,128.806Z" style="fill:black;stroke-width:2.74px;stroke:black;"/>
            </g>
            <g transform="matrix(0.95602,0,0,0.96976,233.843,-33.3376)">
                <path d="M542.325,66.001L533.184,101.497L470.703,102.016C470.703,102.016 465.607,101.604 462.393,104.133C459.013,106.793 458.092,111.158 458.092,111.158L437.251,188.288C437.251,188.288 436.288,192.136 437.811,194.088C439.324,196.029 443.643,196.271 443.643,196.271L511.228,197.392L500.957,233.476L403.112,233.105C403.112,233.105 390.815,233.59 382.687,224.674C376.209,216.844 378.731,205.756 378.731,205.756L408.883,92.753C408.883,92.753 413.906,76.409 422.57,72.103C429.538,67.118 443.571,66.418 443.571,66.418L542.325,66.001Z" style="fill:black;stroke-width:2.74px;stroke:black;"/>
            </g>
            <g transform="matrix(1.56556,0,0,1.58806,-544.432,48.0075)">
                <path d="M535.171,215.349L529.892,233.067L808.217,233.11L813.137,215.019L535.171,215.349Z" style="fill:rgb(209,10,10);stroke-width:1.67px;stroke:rgb(209,10,10);"/>
            </g>
            <g transform="matrix(1.56556,0,0,1.58806,-544.432,48.0075)">
                <path d="M622.49,123.256C622.726,123.34 627.714,107.239 627.995,106.862C608.72,98.352 582.014,101.366 570.113,110.022C563.25,114.602 558.515,129.698 553.865,145C547.886,164.674 543.577,185.433 551.223,192.486C560.821,205.27 608.294,194.203 608.294,194.203L621.509,147.872L589.871,147.286L586.138,161.896L598.621,161.91L593.279,179.313C593.279,179.313 573.651,181.747 569.476,177.988C567.479,173.489 570.526,159.338 573.819,146.43C576.462,136.067 579.298,128.143 582.874,123.954C587.972,117.981 615.085,120.614 622.49,123.256Z" style="fill:black;stroke-width:1.67px;stroke:black;"/>
            </g>
            <g transform="matrix(1.56556,0,0,1.58806,-544.432,48.0075)">
                <path d="M663.678,102.706L642.289,102.867L654.079,168.484L646.895,195.769L668.3,195.889L674.271,169.218L721.799,103.15L698.533,103.221L669.765,145.222L663.678,102.706Z" style="fill:black;stroke-width:1.67px;stroke:black;"/>
            </g>
            <g transform="matrix(1.56556,0,0,1.58806,-544.432,48.0075)">
                <path d="M738.794,102.431L758.716,102.663L765.616,162.17L806.006,102.696L825.464,102.459L806.958,196.201L786.887,195.93L796.995,146.284L770.733,183.69L750.618,183.81L744.604,145.563L728.047,195.765L707.66,195.823L738.794,102.431Z" style="fill:black;stroke-width:1.67px;stroke:black;"/>
            </g>
        </g>
    </g>
</svg>
