<?xml version="1.0" encoding="UTF-8" standalone="no"?><!DOCTYPE svg PUBLIC "-//W3C//DTD SVG 1.1//EN" "http://www.w3.org/Graphics/SVG/1.1/DTD/svg11.dtd"><svg width="100%" height="100%" viewBox="0 0 14 6" version="1.1" xmlns="http://www.w3.org/2000/svg" xmlns:xlink="http://www.w3.org/1999/xlink" xml:space="preserve" style="fill-rule:evenodd;clip-rule:evenodd;stroke-linejoin:round;stroke-miterlimit:1.41421;"><rect id="Undono-v10-.--Small" x="0" y="0" width="13.537" height="5.586" style="fill:none;"/><path d="M7.133,3.083c0.183,0.339 0.593,0.433 0.781,0.43c0.208,-0.004 0.734,-0.069 0.734,-0.896c-0.001,-1.398 1.013,-1.412 1.215,-1.402c0.178,0.008 1.082,0 1.125,1.339c0.032,0.97 0.793,0.969 0.957,0.968c0.606,-0.005 0.799,-0.484 0.79,-0.926c-0.012,-0.586 -0.587,-0.794 -0.835,-0.792c-0.659,0.003 -0.825,0.452 -0.825,0.452c-0.028,-0.255 -0.098,-0.465 -0.214,-0.643c0.249,-0.252 0.6,-0.414 1.042,-0.414c0.62,-0.001 1.435,0.423 1.44,1.401c0.004,0.842 -0.541,1.549 -1.403,1.545c-1.298,-0.007 -1.524,-1.207 -1.538,-1.584c-0.004,-0.121 -0.003,-0.684 -0.547,-0.696c-0.545,-0.011 -0.622,0.373 -0.626,0.735c-0.008,0.833 -0.507,1.498 -1.296,1.517c-0.44,0.01 -0.822,-0.142 -1.092,-0.395l0.002,-0.002c0.034,-0.039 0.065,-0.08 0.093,-0.124c0.048,-0.071 0.088,-0.148 0.12,-0.228c0.035,-0.089 0.06,-0.182 0.076,-0.276c0,-0.003 0.001,-0.006 0.001,-0.009Zm-0.092,-1.542c-0.001,0.246 -0.001,0.49 -0.001,0.696c-0.049,0.091 -0.085,0.19 -0.106,0.292c-0.001,0.003 -0.001,0.007 -0.001,0.01c0,-0.003 0.001,-0.006 0.001,-0.01l0.004,-0.008c-0.001,0.003 -0.002,0.006 -0.003,0.009c-0.001,0.003 -0.002,0.007 -0.003,0.01c-0.002,0.009 -0.003,0.017 -0.004,0.025c-0.001,0.007 -0.001,0.015 -0.002,0.022c-0.001,0.018 -0.002,0.036 -0.003,0.053c-0.002,0.058 -0.004,0.116 -0.005,0.173c0,0.019 0,0.037 -0.001,0.056c0,0.018 -0.001,0.036 -0.002,0.054c-0.002,0.04 -0.006,0.079 -0.012,0.118c-0.012,0.082 -0.034,0.163 -0.064,0.241c-0.022,0.055 -0.049,0.109 -0.081,0.159c-0.021,0.034 -0.044,0.067 -0.068,0.098c-0.002,0.003 -0.004,0.005 -0.006,0.008c-0.098,-0.131 -0.172,-0.279 -0.216,-0.438c0.014,-0.032 0.026,-0.065 0.036,-0.099c0.014,-0.049 0.024,-0.099 0.03,-0.15c0.002,-0.025 0.004,-0.05 0.004,-0.076c0,-0.005 0,-0.01 0,-0.015c0,-0.013 0,-0.026 0,-0.039c0,-0.019 0,-0.039 0.001,-0.058c0.001,-0.056 0.004,-0.113 0.01,-0.169c0.003,-0.033 0.007,-0.066 0.012,-0.1c0.004,-0.026 0.008,-0.052 0.013,-0.079c0.03,-0.154 0.08,-0.305 0.159,-0.442c0.01,-0.018 0.021,-0.036 0.033,-0.054c0.018,-0.029 0.038,-0.056 0.059,-0.083c0.04,-0.051 0.086,-0.098 0.135,-0.141c0.026,-0.022 0.053,-0.044 0.081,-0.063Zm-2.411,0.043c0.171,-0.198 0.422,-0.385 0.995,-0.39c0.588,-0.005 0.788,0.251 0.788,0.251l-0.001,-1.263l0.638,0c0,0 -0.006,0.56 -0.008,1.084c-0.077,0.041 -0.15,0.09 -0.217,0.146c-0.055,0.046 -0.106,0.097 -0.153,0.152c-0.035,0.041 -0.067,0.084 -0.097,0.129c-0.024,0.036 -0.046,0.072 -0.066,0.11c-0.012,0.024 -0.025,0.048 -0.036,0.073c-0.057,0.122 -0.097,0.252 -0.124,0.385c-0.092,-0.227 -0.293,-0.474 -0.726,-0.479c-0.448,-0.004 -0.663,0.244 -0.752,0.378l-0.002,-0.01c-0.006,-0.026 -0.012,-0.053 -0.019,-0.079c-0.039,-0.148 -0.096,-0.292 -0.177,-0.423c-0.011,-0.017 -0.022,-0.034 -0.033,-0.05c-0.004,-0.005 -0.007,-0.01 -0.01,-0.014Z" style="fill:url(#_Linear1);"/><clipPath id="_clip2"><path d="M7.133,3.083c0.183,0.339 0.593,0.433 0.781,0.43c0.208,-0.004 0.734,-0.069 0.734,-0.896c-0.001,-1.398 1.013,-1.412 1.215,-1.402c0.178,0.008 1.082,0 1.125,1.339c0.032,0.97 0.793,0.969 0.957,0.968c0.606,-0.005 0.799,-0.484 0.79,-0.926c-0.012,-0.586 -0.587,-0.794 -0.835,-0.792c-0.659,0.003 -0.825,0.452 -0.825,0.452c-0.028,-0.255 -0.098,-0.465 -0.214,-0.643c0.249,-0.252 0.6,-0.414 1.042,-0.414c0.62,-0.001 1.435,0.423 1.44,1.401c0.004,0.842 -0.541,1.549 -1.403,1.545c-1.298,-0.007 -1.524,-1.207 -1.538,-1.584c-0.004,-0.121 -0.003,-0.684 -0.547,-0.696c-0.545,-0.011 -0.622,0.373 -0.626,0.735c-0.008,0.833 -0.507,1.498 -1.296,1.517c-0.44,0.01 -0.822,-0.142 -1.092,-0.395l0.002,-0.002c0.034,-0.039 0.065,-0.08 0.093,-0.124c0.048,-0.071 0.088,-0.148 0.12,-0.228c0.035,-0.089 0.06,-0.182 0.076,-0.276c0,-0.003 0.001,-0.006 0.001,-0.009Zm-0.092,-1.542c-0.001,0.246 -0.001,0.49 -0.001,0.696c-0.049,0.091 -0.085,0.19 -0.106,0.292c-0.001,0.003 -0.001,0.007 -0.001,0.01c0,-0.003 0.001,-0.006 0.001,-0.01l0.004,-0.008c-0.001,0.003 -0.002,0.006 -0.003,0.009c-0.001,0.003 -0.002,0.007 -0.003,0.01c-0.002,0.009 -0.003,0.017 -0.004,0.025c-0.001,0.007 -0.001,0.015 -0.002,0.022c-0.001,0.018 -0.002,0.036 -0.003,0.053c-0.002,0.058 -0.004,0.116 -0.005,0.173c0,0.019 0,0.037 -0.001,0.056c0,0.018 -0.001,0.036 -0.002,0.054c-0.002,0.04 -0.006,0.079 -0.012,0.118c-0.012,0.082 -0.034,0.163 -0.064,0.241c-0.022,0.055 -0.049,0.109 -0.081,0.159c-0.021,0.034 -0.044,0.067 -0.068,0.098c-0.002,0.003 -0.004,0.005 -0.006,0.008c-0.098,-0.131 -0.172,-0.279 -0.216,-0.438c0.014,-0.032 0.026,-0.065 0.036,-0.099c0.014,-0.049 0.024,-0.099 0.03,-0.15c0.002,-0.025 0.004,-0.05 0.004,-0.076c0,-0.005 0,-0.01 0,-0.015c0,-0.013 0,-0.026 0,-0.039c0,-0.019 0,-0.039 0.001,-0.058c0.001,-0.056 0.004,-0.113 0.01,-0.169c0.003,-0.033 0.007,-0.066 0.012,-0.1c0.004,-0.026 0.008,-0.052 0.013,-0.079c0.03,-0.154 0.08,-0.305 0.159,-0.442c0.01,-0.018 0.021,-0.036 0.033,-0.054c0.018,-0.029 0.038,-0.056 0.059,-0.083c0.04,-0.051 0.086,-0.098 0.135,-0.141c0.026,-0.022 0.053,-0.044 0.081,-0.063Zm-2.411,0.043c0.171,-0.198 0.422,-0.385 0.995,-0.39c0.588,-0.005 0.788,0.251 0.788,0.251l-0.001,-1.263l0.638,0c0,0 -0.006,0.56 -0.008,1.084c-0.077,0.041 -0.15,0.09 -0.217,0.146c-0.055,0.046 -0.106,0.097 -0.153,0.152c-0.035,0.041 -0.067,0.084 -0.097,0.129c-0.024,0.036 -0.046,0.072 -0.066,0.11c-0.012,0.024 -0.025,0.048 -0.036,0.073c-0.057,0.122 -0.097,0.252 -0.124,0.385c-0.092,-0.227 -0.293,-0.474 -0.726,-0.479c-0.448,-0.004 -0.663,0.244 -0.752,0.378l-0.002,-0.01c-0.006,-0.026 -0.012,-0.053 -0.019,-0.079c-0.039,-0.148 -0.096,-0.292 -0.177,-0.423c-0.011,-0.017 -0.022,-0.034 -0.033,-0.05c-0.004,-0.005 -0.007,-0.01 -0.01,-0.014Z"/></clipPath><g clip-path="url(#_clip2)"><path d="M8.6,3.009c0.025,-0.135 0.03,-0.155 0.029,-0.392c-0.002,-1.398 1.043,-1.435 1.244,-1.426c0.129,0.006 0.627,-0.023 0.912,0.476c0.112,0.195 0.178,0.214 0.206,0.886c0.03,0.698 0.465,1.507 1.703,1.383c-0.776,0.472 -1.468,0.157 -1.769,-0.101c-0.489,-0.419 -0.514,-1.05 -0.523,-1.274c-0.004,-0.121 -0.022,-0.659 -0.567,-0.67c-0.545,-0.012 -0.561,0.348 -0.587,0.709c-0.102,1.39 -0.622,1.465 -1.404,1.529c0,0 0.598,-0.268 0.756,-1.12Z" style="fill:url(#_Linear3);"/><ellipse cx="6.342" cy="2.021" rx="2.287" ry="2.536" style="fill:url(#_Linear4);"/><path d="M12.069,1.025c0.748,0 1.467,0.097 1.546,0.723c0.216,1.735 -0.724,2.426 -1.472,2.426c-0.611,0 -1.067,-1.333 -1.176,-2.078c-0.023,-0.157 -0.221,-0.419 -0.175,-0.542c0.138,-0.368 0.716,-0.529 1.277,-0.529Z" style="fill:url(#_Linear5);"/><path d="M6.777,2.883c0.753,-0.474 1.664,-0.384 2.032,0.201c0.369,0.586 0.056,1.446 -0.698,1.92c-0.753,0.474 -1.664,0.384 -2.032,-0.201c-0.368,-0.586 -0.056,-1.446 0.698,-1.92Z" style="fill:url(#_Linear6);"/><path d="M7.545,2.698c-0.69,0.529 -1.304,0.898 -1.654,0.441c-0.35,-0.457 -0.279,-1.463 0.385,-2.097c0.629,-0.601 1.535,-0.588 1.885,-0.131c0.351,0.457 0.075,1.258 -0.616,1.787Z" style="fill:url(#_Radial7);"/></g><path d="M1.175,1.382l-0.176,0c-0.003,0.428 -0.004,0.962 -0.005,1.338c0,0.531 0.278,0.828 0.652,0.829c0.488,0.002 0.657,-0.429 0.657,-0.839c0,-0.76 0.356,-1.487 1.275,-1.494c0.912,-0.008 1.229,0.675 1.229,1.482c-0.001,0.253 0.098,0.821 0.778,0.822c0.563,0 0.841,-0.388 0.836,-0.76c-0.011,-0.868 0.401,-1.572 1.481,-1.567c0.576,0.002 0.882,0.271 0.929,0.338c-0.128,0.168 -0.252,0.494 -0.256,0.629c-0.119,-0.159 -0.226,-0.31 -0.669,-0.31c-0.443,0 -0.78,0.294 -0.86,0.716c0,0 -0.008,0.015 -0.012,0.3c-0.013,0.929 -0.869,1.279 -1.439,1.279c-1.316,-0.002 -1.46,-1.093 -1.466,-1.439c-0.008,-0.53 -0.197,-0.832 -0.558,-0.83c-0.489,0.001 -0.6,0.526 -0.606,0.855c-0.01,0.635 -0.448,1.453 -1.343,1.455c-0.792,0.001 -1.276,-0.631 -1.279,-1.451c-0.001,-0.333 -0.005,-0.85 -0.001,-1.353l-0.176,0l0.505,-0.669l0.504,0.669Z" style="fill:url(#_Linear8);"/><clipPath id="_clip9"><path d="M1.175,1.382l-0.176,0c-0.003,0.428 -0.004,0.962 -0.005,1.338c0,0.531 0.278,0.828 0.652,0.829c0.488,0.002 0.657,-0.429 0.657,-0.839c0,-0.76 0.356,-1.487 1.275,-1.494c0.912,-0.008 1.229,0.675 1.229,1.482c-0.001,0.253 0.098,0.821 0.778,0.822c0.563,0 0.841,-0.388 0.836,-0.76c-0.011,-0.868 0.401,-1.572 1.481,-1.567c0.576,0.002 0.882,0.271 0.929,0.338c-0.128,0.168 -0.252,0.494 -0.256,0.629c-0.119,-0.159 -0.226,-0.31 -0.669,-0.31c-0.443,0 -0.78,0.294 -0.86,0.716c0,0 -0.008,0.015 -0.012,0.3c-0.013,0.929 -0.869,1.279 -1.439,1.279c-1.316,-0.002 -1.46,-1.093 -1.466,-1.439c-0.008,-0.53 -0.197,-0.832 -0.558,-0.83c-0.489,0.001 -0.6,0.526 -0.606,0.855c-0.01,0.635 -0.448,1.453 -1.343,1.455c-0.792,0.001 -1.276,-0.631 -1.279,-1.451c-0.001,-0.333 -0.005,-0.85 -0.001,-1.353l-0.176,0l0.505,-0.669l0.504,0.669Z"/></clipPath><g clip-path="url(#_clip9)"><ellipse cx="4.483" cy="1.859" rx="1.706" ry="1.438" style="fill:url(#_Radial10);"/><path d="M3.065,3.5c-1.426,-1.05 0.611,-2.248 1.273,-1.382c0.299,0.39 0.278,0.874 0.593,1.093c0.224,0.155 0.625,0.297 1.07,-0.058c0.232,-0.185 0.299,-2.727 2.578,-2.015c0.848,0.265 -0.321,1.507 -0.613,1.873c-0.478,0.598 -1.836,1.341 -2.668,1.345c-0.292,0.001 -1.921,-0.627 -2.233,-0.856Z" style="fill:url(#_Linear11);"/><ellipse cx="2.825" cy="1.635" rx="3.614" ry="2.551" style="fill:url(#_Linear12);"/><path d="M6.855,0.479c0.536,-0.586 1.385,-0.682 1.896,-0.215c0.51,0.467 0.49,1.322 -0.046,1.907c-0.535,0.586 -1.385,0.682 -1.895,0.215c-0.511,-0.467 -0.491,-1.321 0.045,-1.907Z" style="fill:url(#_Linear13);"/></g><text x="1.105px" y="5.216px" style="font-family:'AvenirNext-Bold', 'Avenir Next', sans-serif;font-weight:700;font-size:0.7px;fill:#5a5a5a;">Pa<tspan x="2.029px 2.292px 2.779px 3.01px 3.462px 3.95px 4.466px 4.697px 5.288px 5.757px 6.209px 6.474px 6.79px 7.278px 7.509px 8.234px 8.686px 9.173px 9.625px 10.142px 10.615px 11.318px 11.791px " y="5.216px 5.216px 5.216px 5.216px 5.216px 5.216px 5.216px 5.216px 5.216px 5.216px 5.216px 5.216px 5.216px 5.216px 5.216px 5.216px 5.216px 5.216px 5.216px 5.216px 5.216px 5.216px 5.216px ">in and Health Managemen</tspan>t</text><defs><linearGradient id="_Linear1" x1="0" y1="0" x2="1" y2="0" gradientUnits="userSpaceOnUse" gradientTransform="matrix(8.85916,-3.57794e-31,-6.77506e-32,3.91427,4.60891,2.23562)"><stop offset="0" style="stop-color:#5a5a5a;stop-opacity:1"/><stop offset="1" style="stop-color:#5a5a5a;stop-opacity:1"/></linearGradient><linearGradient id="_Linear3" x1="0" y1="0" x2="1" y2="0" gradientUnits="userSpaceOnUse" gradientTransform="matrix(1.6099e-16,2.62917,-2.62917,1.6099e-16,9.83628,1.50839)"><stop offset="0" style="stop-color:#606060;stop-opacity:0.576961"/><stop offset="1" style="stop-color:#fff;stop-opacity:0.576961"/></linearGradient><linearGradient id="_Linear4" x1="0" y1="0" x2="1" y2="0" gradientUnits="userSpaceOnUse" gradientTransform="matrix(-1.40561,-0.536347,0.536347,-1.40561,6.59821,1.19006)"><stop offset="0" style="stop-color:#6e6e6e;stop-opacity:0"/><stop offset="0.55" style="stop-color:#9e9e9e;stop-opacity:0.709804"/><stop offset="1" style="stop-color:#b1b1b1;stop-opacity:1"/></linearGradient><linearGradient id="_Linear5" x1="0" y1="0" x2="1" y2="0" gradientUnits="userSpaceOnUse" gradientTransform="matrix(0.0251907,-2.71237,2.71237,0.0251907,12.2328,3.31722)"><stop offset="0" style="stop-color:#606060;stop-opacity:0"/><stop offset="0.53" style="stop-color:#d3d3d3;stop-opacity:0.505882"/><stop offset="1" style="stop-color:#fff;stop-opacity:0.698039"/></linearGradient><linearGradient id="_Linear6" x1="0" y1="0" x2="1" y2="0" gradientUnits="userSpaceOnUse" gradientTransform="matrix(-1.07389,-0.485228,0.485228,-1.07389,7.94171,3.94347)"><stop offset="0" style="stop-color:#606060;stop-opacity:0"/><stop offset="0.51" style="stop-color:#4a81b2;stop-opacity:0.741176"/><stop offset="1" style="stop-color:#438ccf;stop-opacity:1"/></linearGradient><radialGradient id="_Radial7" cx="0" cy="0" r="1" gradientUnits="userSpaceOnUse" gradientTransform="matrix(-0.875719,-0.821421,0.566984,-0.718679,6.99553,1.86035)"><stop offset="0" style="stop-color:#349eff;stop-opacity:1"/><stop offset="1" style="stop-color:#606060;stop-opacity:0"/></radialGradient><linearGradient id="_Linear8" x1="0" y1="0" x2="1" y2="0" gradientUnits="userSpaceOnUse" gradientTransform="matrix(8.37888,-0.0195351,0.0195351,8.37888,0.170521,1.91877)"><stop offset="0" style="stop-color:#0155a3;stop-opacity:1"/><stop offset="1" style="stop-color:#2e92dd;stop-opacity:1"/></linearGradient><radialGradient id="_Radial10" cx="0" cy="0" r="1" gradientUnits="userSpaceOnUse" gradientTransform="matrix(0.324832,1.49647,-0.86823,0.363706,4.6296,2.00338)"><stop offset="0" style="stop-color:#004b90;stop-opacity:1"/><stop offset="0.65" style="stop-color:#0e4e89;stop-opacity:0.858824"/><stop offset="0.84" style="stop-color:#335676;stop-opacity:0.466667"/><stop offset="1" style="stop-color:#606060;stop-opacity:0"/></radialGradient><linearGradient id="_Linear11" x1="0" y1="0" x2="1" y2="0" gradientUnits="userSpaceOnUse" gradientTransform="matrix(3.19565,-0.00311213,0.00276685,2.8411,3.49778,3.20308)"><stop offset="0" style="stop-color:#3192d0;stop-opacity:0"/><stop offset="0.06" style="stop-color:#3892d6;stop-opacity:0.439216"/><stop offset="0.13" style="stop-color:#3e92db;stop-opacity:0.839216"/><stop offset="0.34" style="stop-color:#4092dd;stop-opacity:1"/><stop offset="0.78" style="stop-color:#4092dd;stop-opacity:1"/><stop offset="0.9" style="stop-color:#4092dd;stop-opacity:1"/><stop offset="1" style="stop-color:#4092dd;stop-opacity:1"/></linearGradient><linearGradient id="_Linear12" x1="0" y1="0" x2="1" y2="0" gradientUnits="userSpaceOnUse" gradientTransform="matrix(0.0331138,3.08158,-2.81202,0.0362881,1.07428,-0.031742)"><stop offset="0" style="stop-color:#139fff;stop-opacity:1"/><stop offset="0.45" style="stop-color:#209bf5;stop-opacity:0.705882"/><stop offset="1" style="stop-color:#3e91dd;stop-opacity:0"/></linearGradient><linearGradient id="_Linear13" x1="0" y1="0" x2="1" y2="0" gradientUnits="userSpaceOnUse" gradientTransform="matrix(1.01551,0.660455,-0.660455,1.01551,7.7801,1.19006)"><stop offset="0" style="stop-color:#0155a3;stop-opacity:0"/><stop offset="1" style="stop-color:#7e8890;stop-opacity:1"/></linearGradient></defs></svg>